%TF.GenerationSoftware,KiCad,Pcbnew,9.0.5*%
%TF.CreationDate,2025-11-15T18:52:14+05:30*%
%TF.ProjectId,HeartPCB_KiCad,48656172-7450-4434-925f-4b694361642e,rev?*%
%TF.SameCoordinates,Original*%
%TF.FileFunction,Copper,L2,Bot*%
%TF.FilePolarity,Positive*%
%FSLAX46Y46*%
G04 Gerber Fmt 4.6, Leading zero omitted, Abs format (unit mm)*
G04 Created by KiCad (PCBNEW 9.0.5) date 2025-11-15 18:52:14*
%MOMM*%
%LPD*%
G01*
G04 APERTURE LIST*
G04 Aperture macros list*
%AMRoundRect*
0 Rectangle with rounded corners*
0 $1 Rounding radius*
0 $2 $3 $4 $5 $6 $7 $8 $9 X,Y pos of 4 corners*
0 Add a 4 corners polygon primitive as box body*
4,1,4,$2,$3,$4,$5,$6,$7,$8,$9,$2,$3,0*
0 Add four circle primitives for the rounded corners*
1,1,$1+$1,$2,$3*
1,1,$1+$1,$4,$5*
1,1,$1+$1,$6,$7*
1,1,$1+$1,$8,$9*
0 Add four rect primitives between the rounded corners*
20,1,$1+$1,$2,$3,$4,$5,0*
20,1,$1+$1,$4,$5,$6,$7,0*
20,1,$1+$1,$6,$7,$8,$9,0*
20,1,$1+$1,$8,$9,$2,$3,0*%
%AMHorizOval*
0 Thick line with rounded ends*
0 $1 width*
0 $2 $3 position (X,Y) of the first rounded end (center of the circle)*
0 $4 $5 position (X,Y) of the second rounded end (center of the circle)*
0 Add line between two ends*
20,1,$1,$2,$3,$4,$5,0*
0 Add two circle primitives to create the rounded ends*
1,1,$1,$2,$3*
1,1,$1,$4,$5*%
%AMRotRect*
0 Rectangle, with rotation*
0 The origin of the aperture is its center*
0 $1 length*
0 $2 width*
0 $3 Rotation angle, in degrees counterclockwise*
0 Add horizontal line*
21,1,$1,$2,0,0,$3*%
G04 Aperture macros list end*
%TA.AperFunction,ComponentPad*%
%ADD10R,1.700000X1.700000*%
%TD*%
%TA.AperFunction,ComponentPad*%
%ADD11C,2.600000*%
%TD*%
%TA.AperFunction,ConnectorPad*%
%ADD12C,3.800000*%
%TD*%
%TA.AperFunction,ComponentPad*%
%ADD13C,1.524000*%
%TD*%
%TA.AperFunction,SMDPad,CuDef*%
%ADD14RoundRect,0.250000X-0.375000X-0.625000X0.375000X-0.625000X0.375000X0.625000X-0.375000X0.625000X0*%
%TD*%
%TA.AperFunction,SMDPad,CuDef*%
%ADD15RoundRect,0.500000X1.500000X-0.500000X1.500000X0.500000X-1.500000X0.500000X-1.500000X-0.500000X0*%
%TD*%
%TA.AperFunction,SMDPad,CuDef*%
%ADD16RoundRect,0.250000X0.400000X0.625000X-0.400000X0.625000X-0.400000X-0.625000X0.400000X-0.625000X0*%
%TD*%
%TA.AperFunction,SMDPad,CuDef*%
%ADD17RoundRect,0.500000X0.500000X1.500000X-0.500000X1.500000X-0.500000X-1.500000X0.500000X-1.500000X0*%
%TD*%
%TA.AperFunction,SMDPad,CuDef*%
%ADD18RoundRect,0.250000X0.650000X-0.412500X0.650000X0.412500X-0.650000X0.412500X-0.650000X-0.412500X0*%
%TD*%
%TA.AperFunction,SMDPad,CuDef*%
%ADD19RoundRect,0.250000X-0.412500X-0.650000X0.412500X-0.650000X0.412500X0.650000X-0.412500X0.650000X0*%
%TD*%
%TA.AperFunction,SMDPad,CuDef*%
%ADD20R,0.977900X0.558800*%
%TD*%
%TA.AperFunction,SMDPad,CuDef*%
%ADD21RoundRect,0.250000X-0.650000X0.412500X-0.650000X-0.412500X0.650000X-0.412500X0.650000X0.412500X0*%
%TD*%
%TA.AperFunction,SMDPad,CuDef*%
%ADD22RoundRect,0.250000X-0.400000X-0.625000X0.400000X-0.625000X0.400000X0.625000X-0.400000X0.625000X0*%
%TD*%
%TA.AperFunction,SMDPad,CuDef*%
%ADD23RoundRect,0.250000X0.625000X-0.400000X0.625000X0.400000X-0.625000X0.400000X-0.625000X-0.400000X0*%
%TD*%
%TA.AperFunction,SMDPad,CuDef*%
%ADD24RoundRect,0.250000X-0.625000X0.400000X-0.625000X-0.400000X0.625000X-0.400000X0.625000X0.400000X0*%
%TD*%
%TA.AperFunction,SMDPad,CuDef*%
%ADD25RotRect,1.380000X0.450000X190.000000*%
%TD*%
%TA.AperFunction,ComponentPad*%
%ADD26HorizOval,1.400000X-0.196962X-0.034730X0.196962X0.034730X0*%
%TD*%
%TA.AperFunction,SMDPad,CuDef*%
%ADD27RotRect,1.900000X1.375000X190.000000*%
%TD*%
%TA.AperFunction,SMDPad,CuDef*%
%ADD28RotRect,2.100000X1.475000X190.000000*%
%TD*%
%TA.AperFunction,SMDPad,CuDef*%
%ADD29RoundRect,0.200000X1.414332X-0.142440X-0.385872X1.368111X-1.414332X0.142440X0.385872X-1.368111X0*%
%TD*%
%TA.AperFunction,SMDPad,CuDef*%
%ADD30RoundRect,0.200000X-1.414332X0.142440X0.385872X-1.368111X1.414332X-0.142440X-0.385872X1.368111X0*%
%TD*%
%TA.AperFunction,SMDPad,CuDef*%
%ADD31RoundRect,0.110000X-0.395718X-1.156117X1.069837X0.590464X0.395718X1.156117X-1.069837X-0.590464X0*%
%TD*%
%TA.AperFunction,SMDPad,CuDef*%
%ADD32RoundRect,0.150000X0.825000X0.150000X-0.825000X0.150000X-0.825000X-0.150000X0.825000X-0.150000X0*%
%TD*%
%TA.AperFunction,SMDPad,CuDef*%
%ADD33RoundRect,0.150000X-0.512500X-0.150000X0.512500X-0.150000X0.512500X0.150000X-0.512500X0.150000X0*%
%TD*%
%TA.AperFunction,SMDPad,CuDef*%
%ADD34RoundRect,0.150000X-0.825000X-0.150000X0.825000X-0.150000X0.825000X0.150000X-0.825000X0.150000X0*%
%TD*%
%TA.AperFunction,HeatsinkPad*%
%ADD35R,2.410000X3.300000*%
%TD*%
%TA.AperFunction,ViaPad*%
%ADD36C,0.600000*%
%TD*%
%TA.AperFunction,Conductor*%
%ADD37C,0.500000*%
%TD*%
%TA.AperFunction,Conductor*%
%ADD38C,0.300000*%
%TD*%
G04 APERTURE END LIST*
D10*
%TO.P,GND,1,Pin_1*%
%TO.N,GND*%
X131800000Y-68100000D03*
%TD*%
D11*
%TO.P,REF\u002A\u002A,1*%
%TO.N,N/C*%
X152830000Y-86060000D03*
D12*
X152830000Y-86060000D03*
%TD*%
D10*
%TO.P,Me 2,1,Pin_1*%
%TO.N,Net-(J7-Pin_1)*%
X134400000Y-68100000D03*
%TD*%
%TO.P,Probe Me,1,Pin_1*%
%TO.N,Net-(J8-Pin_1)*%
X129200000Y-68100000D03*
%TD*%
D13*
%TO.P,Display,1,SDA*%
%TO.N,Net-(U3-D4)*%
X131100000Y-72750000D03*
%TO.P,Display,2,SCL*%
%TO.N,Net-(U3-D5)*%
X131100000Y-75250000D03*
%TO.P,Display,3,VCC*%
%TO.N,/V_BAT*%
X131100000Y-77750000D03*
%TO.P,Display,4,GND*%
%TO.N,GND*%
X131100000Y-80350000D03*
%TD*%
D14*
%TO.P,D1,1,K*%
%TO.N,Net-(D1-K)*%
X169100000Y-70500000D03*
%TO.P,D1,2,A*%
%TO.N,+5V_USB*%
X171900000Y-70500000D03*
%TD*%
D15*
%TO.P,J3,1,Pin_1*%
%TO.N,GND*%
X172750000Y-83000000D03*
%TD*%
D16*
%TO.P,R1,1*%
%TO.N,Net-(D2-K)*%
X166550000Y-73500000D03*
%TO.P,R1,2*%
%TO.N,/CHRG*%
X163450000Y-73500000D03*
%TD*%
D17*
%TO.P,J4,1,Pin_1*%
%TO.N,+5V_USB*%
X169053644Y-64365000D03*
%TD*%
D18*
%TO.P,C1,1*%
%TO.N,Net-(U2-GND)*%
X165000000Y-86562500D03*
%TO.P,C1,2*%
%TO.N,GND*%
X165000000Y-83437500D03*
%TD*%
D14*
%TO.P,D2,1,K*%
%TO.N,Net-(D2-K)*%
X169100000Y-73500000D03*
%TO.P,D2,2,A*%
%TO.N,+5V_USB*%
X171900000Y-73500000D03*
%TD*%
D19*
%TO.P,C2,1*%
%TO.N,GND*%
X165125000Y-89500000D03*
%TO.P,C2,2*%
%TO.N,/V_BAT*%
X168250000Y-89500000D03*
%TD*%
D16*
%TO.P,R2,1*%
%TO.N,Net-(D1-K)*%
X166550000Y-70500000D03*
%TO.P,R2,2*%
%TO.N,Net-(U1-~{STDBY})*%
X163450000Y-70500000D03*
%TD*%
D20*
%TO.P,Q1,1,1*%
%TO.N,GND*%
X161839850Y-78049999D03*
%TO.P,Q1,2,2*%
%TO.N,unconnected-(Q1-Pad2)*%
X161839850Y-79000000D03*
%TO.P,Q1,3,3*%
%TO.N,GND*%
X161839850Y-79950001D03*
%TO.P,Q1,4,4*%
%TO.N,Net-(U2-OD)*%
X159160150Y-79950001D03*
%TO.P,Q1,5,5*%
%TO.N,unconnected-(Q1-Pad5)*%
X159160150Y-79000000D03*
%TO.P,Q1,6,6*%
%TO.N,Net-(U2-OC)*%
X159160150Y-78049999D03*
%TD*%
D21*
%TO.P,C3,1*%
%TO.N,+5V_USB*%
X173750000Y-76750000D03*
%TO.P,C3,2*%
%TO.N,GND*%
X173750000Y-79875000D03*
%TD*%
D22*
%TO.P,R3,1*%
%TO.N,Net-(U1-PROG)*%
X158700000Y-64600000D03*
%TO.P,R3,2*%
%TO.N,GND*%
X161800000Y-64600000D03*
%TD*%
D23*
%TO.P,R5,1*%
%TO.N,GND*%
X164750000Y-80550000D03*
%TO.P,R5,2*%
%TO.N,Net-(U2-CS)*%
X164750000Y-77450000D03*
%TD*%
D15*
%TO.P,J5,1,Pin_1*%
%TO.N,/V_BAT*%
X172750000Y-86500000D03*
%TD*%
D17*
%TO.P,J6,1,Pin_1*%
%TO.N,GND*%
X165500000Y-64500000D03*
%TD*%
D24*
%TO.P,R4,1*%
%TO.N,GND*%
X168250000Y-83450000D03*
%TO.P,R4,2*%
%TO.N,/V_BAT*%
X168250000Y-86550000D03*
%TD*%
D25*
%TO.P,J1,1,VBUS*%
%TO.N,+5V_USB*%
X176459036Y-72215904D03*
%TO.P,J1,2,D-*%
%TO.N,unconnected-(J1-D--Pad2)*%
X176346165Y-71575779D03*
%TO.P,J1,3,D+*%
%TO.N,unconnected-(J1-D+-Pad3)*%
X176233293Y-70935654D03*
%TO.P,J1,4,ID*%
%TO.N,unconnected-(J1-ID-Pad4)*%
X176120422Y-70295529D03*
%TO.P,J1,5,GND*%
%TO.N,GND*%
X176007551Y-69655404D03*
D26*
%TO.P,J1,6*%
%TO.N,N/C*%
X179588033Y-74355058D03*
X178216212Y-66575077D03*
D27*
X179015764Y-71397500D03*
X178690000Y-69550000D03*
D28*
X177015520Y-73298722D03*
X176160129Y-68447559D03*
%TD*%
D29*
%TO.P,U3,1,D0*%
%TO.N,unconnected-(U3-D0-Pad1)*%
X129130400Y-94845980D03*
%TO.P,U3,2,D1*%
%TO.N,unconnected-(U3-D1-Pad2)*%
X130763080Y-92900227D03*
%TO.P,U3,3,D2*%
%TO.N,/CHRG*%
X132395761Y-90954474D03*
%TO.P,U3,4,D3*%
%TO.N,/LED_Din*%
X134028441Y-89008721D03*
%TO.P,U3,5,D4*%
%TO.N,Net-(U3-D4)*%
X135661122Y-87062968D03*
%TO.P,U3,6,D5*%
%TO.N,Net-(U3-D5)*%
X137293803Y-85117215D03*
%TO.P,U3,7,D6*%
%TO.N,unconnected-(U3-D6-Pad7)*%
X138926483Y-83171462D03*
D30*
%TO.P,U3,8,D7*%
%TO.N,Net-(U3-D7)*%
X151309591Y-93562124D03*
%TO.P,U3,9,D8*%
%TO.N,Net-(U3-D8)*%
X149676911Y-95507877D03*
%TO.P,U3,10,D9*%
%TO.N,Net-(U3-D9)*%
X148044230Y-97453630D03*
%TO.P,U3,11,D10*%
%TO.N,Net-(U3-D10)*%
X146411550Y-99399383D03*
%TO.P,U3,12,3V3*%
%TO.N,Net-(U3-3V3)*%
X144778869Y-101345136D03*
%TO.P,U3,13,GND*%
%TO.N,GND*%
X143146189Y-103290889D03*
%TO.P,U3,14,5V*%
%TO.N,/V_BAT*%
X141513508Y-105236641D03*
D31*
%TO.P,U3,29,BAT+*%
X142651698Y-89750338D03*
%TO.P,U3,30,BAT-*%
%TO.N,GND*%
X144183787Y-91035913D03*
%TD*%
D32*
%TO.P,U5,1,Vdd*%
%TO.N,Net-(U3-3V3)*%
X150475000Y-73190000D03*
%TO.P,U5,2,NC*%
%TO.N,unconnected-(U5-NC-Pad2)*%
X150475000Y-74460000D03*
%TO.P,U5,3,~{CS}*%
%TO.N,Net-(U3-D9)*%
X150475000Y-75730000D03*
%TO.P,U5,4,SCK*%
%TO.N,Net-(U3-D8)*%
X150475000Y-77000000D03*
%TO.P,U5,5,SDI*%
%TO.N,Net-(U3-D10)*%
X150475000Y-78270000D03*
%TO.P,U5,6,NC*%
%TO.N,unconnected-(U5-NC-Pad6)*%
X150475000Y-79540000D03*
%TO.P,U5,7,NC*%
%TO.N,unconnected-(U5-NC-Pad7)*%
X150475000Y-80810000D03*
%TO.P,U5,8,~{LDAC}*%
%TO.N,GND*%
X145525000Y-80810000D03*
%TO.P,U5,9,~{SHDN}*%
%TO.N,Net-(U3-3V3)*%
X145525000Y-79540000D03*
%TO.P,U5,10,VB*%
%TO.N,Net-(J8-Pin_1)*%
X145525000Y-78270000D03*
%TO.P,U5,11,VrefB*%
%TO.N,Net-(U3-3V3)*%
X145525000Y-77000000D03*
%TO.P,U5,12,Vss*%
%TO.N,GND*%
X145525000Y-75730000D03*
%TO.P,U5,13,VrefA*%
%TO.N,Net-(U3-3V3)*%
X145525000Y-74460000D03*
%TO.P,U5,14,VA*%
%TO.N,Net-(J7-Pin_1)*%
X145525000Y-73190000D03*
%TD*%
D33*
%TO.P,U2,1,OD*%
%TO.N,Net-(U2-OD)*%
X168112500Y-79450000D03*
%TO.P,U2,2,CS*%
%TO.N,Net-(U2-CS)*%
X168112500Y-78500000D03*
%TO.P,U2,3,OC*%
%TO.N,Net-(U2-OC)*%
X168112500Y-77550000D03*
%TO.P,U2,4,TD*%
%TO.N,unconnected-(U2-TD-Pad4)*%
X170387500Y-77550000D03*
%TO.P,U2,5,VCC*%
%TO.N,GND*%
X170387500Y-78500000D03*
%TO.P,U2,6,GND*%
%TO.N,Net-(U2-GND)*%
X170387500Y-79450000D03*
%TD*%
D34*
%TO.P,U1,1,TEMP*%
%TO.N,GND*%
X155525000Y-73905000D03*
%TO.P,U1,2,PROG*%
%TO.N,Net-(U1-PROG)*%
X155525000Y-72635000D03*
%TO.P,U1,3,GND*%
%TO.N,GND*%
X155525000Y-71365000D03*
%TO.P,U1,4,V_{CC}*%
%TO.N,+5V_USB*%
X155525000Y-70095000D03*
%TO.P,U1,5,BAT*%
%TO.N,/V_BAT*%
X160475000Y-70095000D03*
%TO.P,U1,6,~{STDBY}*%
%TO.N,Net-(U1-~{STDBY})*%
X160475000Y-71365000D03*
%TO.P,U1,7,~{CHRG}*%
%TO.N,/CHRG*%
X160475000Y-72635000D03*
%TO.P,U1,8,CE*%
%TO.N,+5V_USB*%
X160475000Y-73905000D03*
D35*
%TO.P,U1,9,EPAD*%
%TO.N,unconnected-(U1-EPAD-Pad9)_1*%
X158000000Y-72000000D03*
%TD*%
D36*
%TO.N,GND*%
X164750000Y-79000000D03*
X141000000Y-102250000D03*
X146250000Y-91250000D03*
X174000000Y-70500000D03*
%TO.N,/V_BAT*%
X161950000Y-68550000D03*
X141250000Y-95000000D03*
X166875000Y-90875000D03*
X139500000Y-104500000D03*
%TO.N,/LED_Din*%
X132000000Y-84500000D03*
%TO.N,/CHRG*%
X162200000Y-73500000D03*
X136750000Y-92750000D03*
%TO.N,Net-(U3-D7)*%
X148750000Y-93500000D03*
%TO.N,unconnected-(U1-EPAD-Pad9)*%
X158000000Y-75000000D03*
%TD*%
D37*
%TO.N,GND*%
X164750000Y-79000000D02*
X164750000Y-80550000D01*
X174000000Y-70500000D02*
X174765815Y-69734185D01*
X145525000Y-75730000D02*
X139480000Y-75730000D01*
X141000000Y-102250000D02*
X142105300Y-102250000D01*
X146035913Y-91035913D02*
X146250000Y-91250000D01*
X174765815Y-69734185D02*
X175326839Y-69734185D01*
X139480000Y-75730000D02*
X132000000Y-68250000D01*
X142105300Y-102250000D02*
X143146189Y-103290889D01*
X144183787Y-91035913D02*
X146035913Y-91035913D01*
%TO.N,Net-(U2-GND)*%
X166870000Y-84692500D02*
X166870000Y-82730342D01*
X166870000Y-82730342D02*
X170150342Y-79450000D01*
X165000000Y-86562500D02*
X166870000Y-84692500D01*
X170150342Y-79450000D02*
X170387500Y-79450000D01*
%TO.N,/V_BAT*%
X168250000Y-86550000D02*
X172700000Y-86550000D01*
X141250000Y-91152036D02*
X142651698Y-89750338D01*
X172700000Y-86550000D02*
X172750000Y-86500000D01*
X139500000Y-104500000D02*
X140776867Y-104500000D01*
X168250000Y-89500000D02*
X168250000Y-86550000D01*
X161950000Y-68550000D02*
X160475000Y-70025000D01*
X141250000Y-95000000D02*
X141250000Y-91152036D01*
X140776867Y-104500000D02*
X141513508Y-105236641D01*
X160475000Y-70025000D02*
X160475000Y-70095000D01*
X166875000Y-90875000D02*
X168250000Y-89500000D01*
%TO.N,+5V_USB*%
X167618644Y-67800000D02*
X169053644Y-66365000D01*
X160475000Y-73905000D02*
X161450000Y-74880000D01*
D38*
X171900000Y-73500000D02*
X172990189Y-72409811D01*
D37*
X170520000Y-74880000D02*
X171900000Y-73500000D01*
X157820000Y-67800000D02*
X167618644Y-67800000D01*
X171900000Y-70500000D02*
X171900000Y-67211356D01*
D38*
X175660951Y-72409811D02*
X175773584Y-72297178D01*
D37*
X173750000Y-76750000D02*
X173750000Y-75350000D01*
X171900000Y-70500000D02*
X171900000Y-73500000D01*
X171900000Y-67211356D02*
X169053644Y-64365000D01*
D38*
X172990189Y-72409811D02*
X175660951Y-72409811D01*
D37*
X155525000Y-70095000D02*
X157820000Y-67800000D01*
X173750000Y-75350000D02*
X171900000Y-73500000D01*
X169053644Y-66365000D02*
X169053644Y-64365000D01*
X161450000Y-74880000D02*
X170520000Y-74880000D01*
%TO.N,Net-(J7-Pin_1)*%
X139690000Y-73190000D02*
X134750000Y-68250000D01*
X145525000Y-73190000D02*
X139690000Y-73190000D01*
%TO.N,Net-(J8-Pin_1)*%
X145525000Y-78270000D02*
X139270000Y-78270000D01*
X139270000Y-78270000D02*
X129250000Y-68250000D01*
%TO.N,/LED_Din*%
X132000000Y-86980280D02*
X134028441Y-89008721D01*
X132000000Y-84500000D02*
X132000000Y-86980280D01*
%TO.N,Net-(U2-OC)*%
X166562500Y-76000000D02*
X161000000Y-76000000D01*
X168112500Y-77550000D02*
X166562500Y-76000000D01*
X159200001Y-78010148D02*
X159160150Y-78049999D01*
X161000000Y-76000000D02*
X159200001Y-77799999D01*
X159200001Y-77799999D02*
X159200001Y-78010148D01*
%TO.N,Net-(U2-OD)*%
X168112500Y-79450000D02*
X168112500Y-79887500D01*
X161210149Y-82000000D02*
X159160150Y-79950001D01*
X168112500Y-79887500D02*
X166000000Y-82000000D01*
X166000000Y-82000000D02*
X161210149Y-82000000D01*
%TO.N,/CHRG*%
X132954474Y-90954474D02*
X132395761Y-90954474D01*
X134750000Y-92750000D02*
X132954474Y-90954474D01*
X162585000Y-72635000D02*
X160475000Y-72635000D01*
X136750000Y-92750000D02*
X134750000Y-92750000D01*
X162200000Y-73500000D02*
X163450000Y-73500000D01*
X163450000Y-73500000D02*
X162585000Y-72635000D01*
%TO.N,Net-(U1-~{STDBY})*%
X162585000Y-71365000D02*
X160475000Y-71365000D01*
X163450000Y-70500000D02*
X162585000Y-71365000D01*
%TO.N,Net-(U1-PROG)*%
X155525000Y-72635000D02*
X153635000Y-72635000D01*
X153635000Y-72635000D02*
X152500000Y-71500000D01*
X152500000Y-71500000D02*
X152500000Y-68500000D01*
X152500000Y-68500000D02*
X156400000Y-64600000D01*
X156400000Y-64600000D02*
X158700000Y-64600000D01*
%TO.N,Net-(U2-CS)*%
X165800000Y-78500000D02*
X164750000Y-77450000D01*
X168112500Y-78500000D02*
X165800000Y-78500000D01*
%TO.N,Net-(U3-D7)*%
X151247467Y-93500000D02*
X151309591Y-93562124D01*
X148750000Y-93500000D02*
X151247467Y-93500000D01*
%TO.N,Net-(U3-D9)*%
X150475000Y-75730000D02*
X152230000Y-75730000D01*
X154000000Y-99000000D02*
X149590600Y-99000000D01*
X149590600Y-99000000D02*
X148044230Y-97453630D01*
X157000000Y-96000000D02*
X154000000Y-99000000D01*
X152230000Y-75730000D02*
X157000000Y-80500000D01*
X157000000Y-80500000D02*
X157000000Y-96000000D01*
%TO.N,Net-(U3-D10)*%
X149500001Y-78270000D02*
X148500000Y-79270001D01*
X145435564Y-98423397D02*
X146411550Y-99399383D01*
X148500000Y-79270001D02*
X148500000Y-92250000D01*
X145435564Y-95314436D02*
X145435564Y-98423397D01*
X148500000Y-92250000D02*
X145435564Y-95314436D01*
X150475000Y-78270000D02*
X149500001Y-78270000D01*
%TO.N,Net-(U3-D8)*%
X155750000Y-95000000D02*
X153550000Y-97200000D01*
X155800000Y-84600000D02*
X155750000Y-84650000D01*
X155800000Y-81000000D02*
X155800000Y-84600000D01*
X150475000Y-77000000D02*
X151800000Y-77000000D01*
X151369034Y-97200000D02*
X149676911Y-95507877D01*
X151800000Y-77000000D02*
X155800000Y-81000000D01*
X153550000Y-97200000D02*
X151369034Y-97200000D01*
X155750000Y-84650000D02*
X155750000Y-95000000D01*
%TO.N,Net-(U3-3V3)*%
X146499999Y-79540000D02*
X147310233Y-78729766D01*
X146160466Y-74460000D02*
X145525000Y-74460000D01*
X147310233Y-78500000D02*
X147310233Y-75850233D01*
X145525000Y-77000000D02*
X146160466Y-77000000D01*
X147430466Y-73190000D02*
X147310233Y-73310233D01*
X145525000Y-79540000D02*
X146499999Y-79540000D01*
X147310233Y-75850233D02*
X147310233Y-73310233D01*
X150475000Y-73190000D02*
X147430466Y-73190000D01*
X147310233Y-78500000D02*
X147310233Y-91689767D01*
X146160466Y-77000000D02*
X147310233Y-75850233D01*
X147310233Y-73310233D02*
X146160466Y-74460000D01*
X143500000Y-95500000D02*
X143500000Y-100066267D01*
X143500000Y-100066267D02*
X144778869Y-101345136D01*
X147310233Y-78729766D02*
X147310233Y-78500000D01*
X147310233Y-91689767D02*
X143500000Y-95500000D01*
%TO.N,Net-(U3-D5)*%
X131100000Y-75250000D02*
X132000000Y-75250000D01*
X135750000Y-83573412D02*
X137293803Y-85117215D01*
X135750000Y-79000000D02*
X135750000Y-83573412D01*
X132000000Y-75250000D02*
X135750000Y-79000000D01*
%TO.N,Net-(U3-D4)*%
X141750000Y-85500000D02*
X139211046Y-88038954D01*
X131500000Y-72750000D02*
X141750000Y-83000000D01*
X139211046Y-88038954D02*
X136637108Y-88038954D01*
X141750000Y-83000000D02*
X141750000Y-85500000D01*
X131100000Y-72750000D02*
X131500000Y-72750000D01*
X136637108Y-88038954D02*
X135661122Y-87062968D01*
%TO.N,Net-(D1-K)*%
X169100000Y-70500000D02*
X166550000Y-70500000D01*
%TO.N,Net-(D2-K)*%
X166550000Y-73500000D02*
X169100000Y-73500000D01*
%TD*%
%TA.AperFunction,Conductor*%
%TO.N,GND*%
G36*
X132050000Y-69450000D02*
G01*
X132697828Y-69450000D01*
X132697844Y-69449999D01*
X132757372Y-69443598D01*
X132757379Y-69443596D01*
X132892086Y-69393354D01*
X132892093Y-69393350D01*
X133007187Y-69307190D01*
X133011962Y-69302416D01*
X133073285Y-69268931D01*
X133142977Y-69273915D01*
X133187324Y-69302416D01*
X133192455Y-69307547D01*
X133307664Y-69393793D01*
X133307671Y-69393797D01*
X133442517Y-69444091D01*
X133442516Y-69444091D01*
X133449444Y-69444835D01*
X133502127Y-69450500D01*
X134837769Y-69450499D01*
X134904808Y-69470184D01*
X134925450Y-69486818D01*
X139211578Y-73772947D01*
X139211581Y-73772950D01*
X139211584Y-73772952D01*
X139273199Y-73814121D01*
X139334505Y-73855084D01*
X139414165Y-73888080D01*
X139462586Y-73908137D01*
X139471087Y-73911658D01*
X139471091Y-73911658D01*
X139471092Y-73911659D01*
X139616079Y-73940500D01*
X139616082Y-73940500D01*
X139616083Y-73940500D01*
X139763917Y-73940500D01*
X143964800Y-73940500D01*
X144031839Y-73960185D01*
X144077594Y-74012989D01*
X144087538Y-74082147D01*
X144083876Y-74099095D01*
X144052402Y-74207426D01*
X144052401Y-74207432D01*
X144049500Y-74244298D01*
X144049500Y-74675701D01*
X144052401Y-74712567D01*
X144052402Y-74712573D01*
X144098254Y-74870393D01*
X144098255Y-74870396D01*
X144098256Y-74870398D01*
X144128275Y-74921158D01*
X144181917Y-75011862D01*
X144186702Y-75018031D01*
X144184369Y-75019840D01*
X144211210Y-75068995D01*
X144206226Y-75138687D01*
X144185470Y-75171021D01*
X144187097Y-75172283D01*
X144182313Y-75178449D01*
X144098718Y-75319801D01*
X144052899Y-75477513D01*
X144052704Y-75479998D01*
X144052705Y-75480000D01*
X145401000Y-75480000D01*
X145468039Y-75499685D01*
X145513794Y-75552489D01*
X145525000Y-75604000D01*
X145525000Y-75856000D01*
X145505315Y-75923039D01*
X145452511Y-75968794D01*
X145401000Y-75980000D01*
X144052705Y-75980000D01*
X144052704Y-75980001D01*
X144052899Y-75982486D01*
X144098718Y-76140198D01*
X144182314Y-76281552D01*
X144187100Y-76287722D01*
X144184640Y-76289629D01*
X144211210Y-76338288D01*
X144206226Y-76407980D01*
X144185162Y-76440781D01*
X144186699Y-76441974D01*
X144181915Y-76448140D01*
X144098255Y-76589603D01*
X144098254Y-76589606D01*
X144052402Y-76747426D01*
X144052401Y-76747432D01*
X144049500Y-76784298D01*
X144049500Y-77215701D01*
X144052401Y-77252567D01*
X144052402Y-77252573D01*
X144083876Y-77360905D01*
X144083677Y-77430775D01*
X144045735Y-77489445D01*
X143982096Y-77518288D01*
X143964800Y-77519500D01*
X139632230Y-77519500D01*
X139565191Y-77499815D01*
X139544549Y-77483181D01*
X131586319Y-69524951D01*
X131552834Y-69463628D01*
X131550000Y-69437270D01*
X131550000Y-68533012D01*
X131607007Y-68565925D01*
X131734174Y-68600000D01*
X131865826Y-68600000D01*
X131992993Y-68565925D01*
X132050000Y-68533012D01*
X132050000Y-69450000D01*
G37*
%TD.AperFunction*%
%TA.AperFunction,Conductor*%
G36*
X163330091Y-76770185D02*
G01*
X163375846Y-76822989D01*
X163385546Y-76890453D01*
X163385689Y-76890468D01*
X163385630Y-76891038D01*
X163385790Y-76892147D01*
X163385154Y-76895701D01*
X163374500Y-76999983D01*
X163374500Y-77900001D01*
X163374501Y-77900019D01*
X163385000Y-78002796D01*
X163385001Y-78002799D01*
X163413088Y-78087558D01*
X163440186Y-78169334D01*
X163532288Y-78318656D01*
X163656344Y-78442712D01*
X163805666Y-78534814D01*
X163972203Y-78589999D01*
X164074991Y-78600500D01*
X164787770Y-78600499D01*
X164854809Y-78620183D01*
X164875451Y-78636818D01*
X165217049Y-78978416D01*
X165270795Y-79032162D01*
X165321585Y-79082952D01*
X165431580Y-79156448D01*
X165444505Y-79165084D01*
X165444508Y-79165085D01*
X165447414Y-79166639D01*
X165448654Y-79167856D01*
X165449570Y-79168469D01*
X165449453Y-79168642D01*
X165497261Y-79215599D01*
X165512724Y-79283736D01*
X165488896Y-79349417D01*
X165433340Y-79391788D01*
X165388966Y-79400000D01*
X165000000Y-79400000D01*
X165000000Y-80300000D01*
X166124999Y-80300000D01*
X166124999Y-80100028D01*
X166124998Y-80100013D01*
X166114505Y-79997302D01*
X166059358Y-79830880D01*
X166059356Y-79830875D01*
X165967315Y-79681654D01*
X165843345Y-79557684D01*
X165717462Y-79480039D01*
X165670738Y-79428091D01*
X165659515Y-79359128D01*
X165687359Y-79295046D01*
X165745427Y-79256190D01*
X165782559Y-79250500D01*
X166825500Y-79250500D01*
X166892539Y-79270185D01*
X166938294Y-79322989D01*
X166949500Y-79374500D01*
X166949500Y-79665701D01*
X166952401Y-79702565D01*
X166952402Y-79702567D01*
X166952402Y-79702569D01*
X166957160Y-79718947D01*
X166995801Y-79851949D01*
X166995601Y-79921819D01*
X166964405Y-79974225D01*
X166174949Y-80763681D01*
X166113626Y-80797166D01*
X166087268Y-80800000D01*
X163375001Y-80800000D01*
X163375001Y-80999986D01*
X163386182Y-81109431D01*
X163384063Y-81109647D01*
X163379601Y-81169224D01*
X163337542Y-81225016D01*
X163271996Y-81249213D01*
X163263566Y-81249500D01*
X161572378Y-81249500D01*
X161505339Y-81229815D01*
X161484697Y-81213181D01*
X161212598Y-80941082D01*
X161179113Y-80879759D01*
X161184097Y-80810067D01*
X161225969Y-80754134D01*
X161291433Y-80729717D01*
X161300279Y-80729401D01*
X161589850Y-80729401D01*
X162089850Y-80729401D01*
X162376628Y-80729401D01*
X162376644Y-80729400D01*
X162436172Y-80722999D01*
X162436179Y-80722997D01*
X162570886Y-80672755D01*
X162570893Y-80672751D01*
X162685987Y-80586591D01*
X162685990Y-80586588D01*
X162772150Y-80471494D01*
X162772154Y-80471487D01*
X162822396Y-80336780D01*
X162822398Y-80336773D01*
X162828799Y-80277245D01*
X162828800Y-80277228D01*
X162828800Y-80200001D01*
X162089850Y-80200001D01*
X162089850Y-80729401D01*
X161589850Y-80729401D01*
X161589850Y-80200001D01*
X160850900Y-80200001D01*
X160850900Y-80280021D01*
X160831215Y-80347060D01*
X160778411Y-80392815D01*
X160709253Y-80402759D01*
X160645697Y-80373734D01*
X160639219Y-80367702D01*
X160371530Y-80100013D01*
X163375000Y-80100013D01*
X163375000Y-80300000D01*
X164500000Y-80300000D01*
X164500000Y-79400000D01*
X164075028Y-79400000D01*
X164075012Y-79400001D01*
X163972302Y-79410494D01*
X163805880Y-79465641D01*
X163805875Y-79465643D01*
X163656654Y-79557684D01*
X163532684Y-79681654D01*
X163440643Y-79830875D01*
X163440641Y-79830880D01*
X163385494Y-79997302D01*
X163385493Y-79997309D01*
X163375000Y-80100013D01*
X160371530Y-80100013D01*
X160185918Y-79914401D01*
X160152433Y-79853078D01*
X160149599Y-79826720D01*
X160149599Y-79622730D01*
X160149598Y-79622724D01*
X160143191Y-79563119D01*
X160143191Y-79563118D01*
X160126486Y-79518332D01*
X160121503Y-79448642D01*
X160126484Y-79431675D01*
X160143191Y-79386883D01*
X160149600Y-79327273D01*
X160149599Y-78672728D01*
X160149599Y-78672727D01*
X160850400Y-78672727D01*
X160850400Y-78672734D01*
X160850400Y-78672735D01*
X160850400Y-79327270D01*
X160850401Y-79327276D01*
X160856809Y-79386884D01*
X160873778Y-79432382D01*
X160878762Y-79502074D01*
X160873779Y-79519045D01*
X160857303Y-79563221D01*
X160857301Y-79563228D01*
X160850900Y-79622756D01*
X160850900Y-79700001D01*
X161036313Y-79700001D01*
X161103352Y-79719686D01*
X161107815Y-79722784D01*
X161108570Y-79723197D01*
X161183055Y-79750977D01*
X161243417Y-79773491D01*
X161303027Y-79779900D01*
X162376672Y-79779899D01*
X162436283Y-79773491D01*
X162483981Y-79755701D01*
X162571129Y-79723197D01*
X162578912Y-79718947D01*
X162579873Y-79720707D01*
X162634539Y-79700317D01*
X162643387Y-79700001D01*
X162828800Y-79700001D01*
X162828800Y-79622773D01*
X162828799Y-79622756D01*
X162822398Y-79563228D01*
X162805920Y-79519048D01*
X162800936Y-79449356D01*
X162805916Y-79432392D01*
X162822891Y-79386883D01*
X162829300Y-79327273D01*
X162829299Y-78672728D01*
X162822891Y-78613117D01*
X162805919Y-78567614D01*
X162800936Y-78497925D01*
X162805921Y-78480947D01*
X162822398Y-78436771D01*
X162828799Y-78377243D01*
X162828800Y-78377226D01*
X162828800Y-78299999D01*
X162643387Y-78299999D01*
X162576348Y-78280314D01*
X162571884Y-78277215D01*
X162571129Y-78276802D01*
X162436282Y-78226508D01*
X162436283Y-78226508D01*
X162376683Y-78220101D01*
X162376681Y-78220100D01*
X162376673Y-78220100D01*
X162376665Y-78220100D01*
X161303029Y-78220100D01*
X161303023Y-78220101D01*
X161243416Y-78226508D01*
X161108570Y-78276802D01*
X161100788Y-78281053D01*
X161099826Y-78279292D01*
X161045161Y-78299683D01*
X161036313Y-78299999D01*
X160850900Y-78299999D01*
X160850900Y-78377243D01*
X160857301Y-78436771D01*
X160857303Y-78436781D01*
X160873778Y-78480952D01*
X160878762Y-78550643D01*
X160873779Y-78567615D01*
X160856811Y-78613111D01*
X160856809Y-78613117D01*
X160850400Y-78672727D01*
X160149599Y-78672727D01*
X160143191Y-78613117D01*
X160126486Y-78568331D01*
X160121503Y-78498641D01*
X160126484Y-78481674D01*
X160143191Y-78436882D01*
X160149600Y-78377272D01*
X160149599Y-77963128D01*
X160169283Y-77896090D01*
X160185913Y-77875453D01*
X160338612Y-77722754D01*
X160850900Y-77722754D01*
X160850900Y-77799999D01*
X161589850Y-77799999D01*
X162089850Y-77799999D01*
X162828800Y-77799999D01*
X162828800Y-77722771D01*
X162828799Y-77722754D01*
X162822398Y-77663226D01*
X162822396Y-77663219D01*
X162772154Y-77528512D01*
X162772150Y-77528505D01*
X162685990Y-77413411D01*
X162685987Y-77413408D01*
X162570893Y-77327248D01*
X162570886Y-77327244D01*
X162436179Y-77277002D01*
X162436172Y-77277000D01*
X162376644Y-77270599D01*
X162089850Y-77270599D01*
X162089850Y-77799999D01*
X161589850Y-77799999D01*
X161589850Y-77270599D01*
X161303055Y-77270599D01*
X161243527Y-77277000D01*
X161243520Y-77277002D01*
X161108813Y-77327244D01*
X161108811Y-77327245D01*
X161013479Y-77398611D01*
X160978911Y-77433178D01*
X160907547Y-77528509D01*
X160907545Y-77528512D01*
X160857303Y-77663219D01*
X160857301Y-77663226D01*
X160850900Y-77722754D01*
X160338612Y-77722754D01*
X161274549Y-76786819D01*
X161335872Y-76753334D01*
X161362230Y-76750500D01*
X163263052Y-76750500D01*
X163330091Y-76770185D01*
G37*
%TD.AperFunction*%
%TA.AperFunction,Conductor*%
G36*
X132724502Y-54683067D02*
G01*
X133286621Y-54695782D01*
X133289340Y-54695873D01*
X133656248Y-54712320D01*
X133660746Y-54712605D01*
X134201869Y-54756743D01*
X134204471Y-54756984D01*
X134556268Y-54793252D01*
X134560266Y-54793731D01*
X135075929Y-54864259D01*
X135078114Y-54864578D01*
X135413207Y-54916634D01*
X135416361Y-54917167D01*
X135906046Y-55006604D01*
X135907690Y-55006916D01*
X136226615Y-55069710D01*
X136228888Y-55070180D01*
X136695451Y-55171416D01*
X136696627Y-55171677D01*
X136800155Y-55195215D01*
X137001586Y-55241011D01*
X137003375Y-55241431D01*
X137041604Y-55250723D01*
X137453041Y-55350727D01*
X137454122Y-55350995D01*
X137749330Y-55425564D01*
X137751413Y-55426109D01*
X138193082Y-55546037D01*
X138194576Y-55546454D01*
X138486470Y-55629842D01*
X138489701Y-55630813D01*
X138707972Y-55699696D01*
X138935672Y-55771555D01*
X138937963Y-55772302D01*
X139235404Y-55872566D01*
X139239686Y-55874098D01*
X139702479Y-56049248D01*
X139705148Y-56050294D01*
X140016104Y-56176427D01*
X140020664Y-56178385D01*
X140495577Y-56393765D01*
X140506633Y-56398779D01*
X140509327Y-56400039D01*
X140828666Y-56554234D01*
X140835677Y-56557619D01*
X140839944Y-56559781D01*
X141190315Y-56745984D01*
X141342662Y-56826948D01*
X141345060Y-56828257D01*
X141678521Y-57015010D01*
X141682211Y-57017162D01*
X142178250Y-57318048D01*
X142180196Y-57319255D01*
X142501193Y-57522854D01*
X142504536Y-57525052D01*
X142667641Y-57636147D01*
X142959208Y-57834741D01*
X142961234Y-57836151D01*
X143245675Y-58038295D01*
X143249107Y-58040823D01*
X143630246Y-58331984D01*
X143632323Y-58333607D01*
X143806879Y-58473184D01*
X143861547Y-58516897D01*
X143865287Y-58520009D01*
X144156372Y-58772104D01*
X144158652Y-58774129D01*
X144283655Y-58887887D01*
X144328835Y-58929002D01*
X144332159Y-58932141D01*
X144496820Y-59093491D01*
X144547309Y-59142965D01*
X144548759Y-59144409D01*
X144678717Y-59276028D01*
X144679660Y-59276993D01*
X144686143Y-59283703D01*
X144686144Y-59283705D01*
X144713659Y-59312186D01*
X144713682Y-59312230D01*
X144713692Y-59312220D01*
X144741501Y-59341027D01*
X144750224Y-59350063D01*
X144750371Y-59350186D01*
X144835564Y-59438371D01*
X144835623Y-59438518D01*
X144863035Y-59466806D01*
X144863167Y-59466943D01*
X144863168Y-59466944D01*
X144899054Y-59504090D01*
X144899677Y-59504618D01*
X144923032Y-59528719D01*
X144956170Y-59562916D01*
X144956327Y-59563307D01*
X144983795Y-59591424D01*
X144984049Y-59591686D01*
X145019083Y-59627839D01*
X145020421Y-59628969D01*
X145063895Y-59673625D01*
X145166555Y-59779077D01*
X145167037Y-59779574D01*
X145286349Y-59903694D01*
X145289640Y-59907257D01*
X145443972Y-60081002D01*
X145467668Y-60107678D01*
X145470873Y-60111434D01*
X145569691Y-60232048D01*
X145580360Y-60245070D01*
X145586207Y-60252805D01*
X145748298Y-60485716D01*
X145750841Y-60489519D01*
X145861434Y-60661806D01*
X145861493Y-60662005D01*
X145861542Y-60661974D01*
X146024026Y-60916001D01*
X146031834Y-60930689D01*
X146032762Y-60932032D01*
X146053257Y-60961700D01*
X146072827Y-60992295D01*
X146075847Y-60994401D01*
X146084079Y-61006317D01*
X146170770Y-61131808D01*
X146179662Y-61146844D01*
X146181792Y-61151105D01*
X146181793Y-61151108D01*
X146181794Y-61151109D01*
X146198434Y-61172555D01*
X146202009Y-61177401D01*
X146209126Y-61187556D01*
X146210121Y-61190562D01*
X146216039Y-61197419D01*
X146219629Y-61202541D01*
X146219669Y-61202661D01*
X146220105Y-61203225D01*
X146222352Y-61206477D01*
X146222355Y-61206479D01*
X146225773Y-61209793D01*
X146237415Y-61222792D01*
X146254007Y-61244175D01*
X146254009Y-61244176D01*
X146256732Y-61246538D01*
X146269349Y-61259187D01*
X146465098Y-61485994D01*
X146468165Y-61493325D01*
X146490988Y-61515991D01*
X146494278Y-61519803D01*
X146512021Y-61540362D01*
X146521648Y-61547870D01*
X146520793Y-61548965D01*
X146533133Y-61557847D01*
X146681954Y-61705645D01*
X146688012Y-61716341D01*
X146710026Y-61733525D01*
X146729833Y-61753195D01*
X146729834Y-61753195D01*
X146729835Y-61753196D01*
X146738971Y-61759254D01*
X146754652Y-61768358D01*
X146783645Y-61790989D01*
X146794305Y-61802328D01*
X146795041Y-61801575D01*
X146803776Y-61810101D01*
X146803777Y-61810101D01*
X146803778Y-61810103D01*
X146825533Y-61824262D01*
X146834173Y-61830428D01*
X146845122Y-61838975D01*
X146854648Y-61846411D01*
X146865554Y-61851901D01*
X146865080Y-61852842D01*
X146879271Y-61859240D01*
X146887354Y-61864501D01*
X147068832Y-61982622D01*
X147076310Y-61991286D01*
X147101985Y-62004202D01*
X147107751Y-62007955D01*
X147107757Y-62007958D01*
X147126090Y-62019890D01*
X147137429Y-62024427D01*
X147137359Y-62024600D01*
X147153048Y-62029889D01*
X147351728Y-62129834D01*
X147368066Y-62142448D01*
X147387015Y-62147585D01*
X147404551Y-62156407D01*
X147413267Y-62157047D01*
X147436613Y-62161033D01*
X147530056Y-62186368D01*
X147537218Y-62191009D01*
X147568298Y-62196737D01*
X147598804Y-62205008D01*
X147598806Y-62205007D01*
X147598807Y-62205008D01*
X147610991Y-62205843D01*
X147610923Y-62206824D01*
X147626329Y-62207431D01*
X147657675Y-62213208D01*
X147671904Y-62218326D01*
X147672361Y-62216870D01*
X147684011Y-62220521D01*
X147684016Y-62220524D01*
X147711604Y-62223499D01*
X147720754Y-62224834D01*
X147748051Y-62229865D01*
X147748056Y-62229863D01*
X147760269Y-62229692D01*
X147760286Y-62230913D01*
X147775388Y-62230379D01*
X147829746Y-62236242D01*
X147851329Y-62240535D01*
X147861850Y-62243621D01*
X147880000Y-62241663D01*
X147898151Y-62243621D01*
X147919271Y-62237427D01*
X147984609Y-62230379D01*
X147999710Y-62231176D01*
X147999731Y-62229692D01*
X148011941Y-62229863D01*
X148011946Y-62229865D01*
X148043788Y-62223996D01*
X148075982Y-62220524D01*
X148082775Y-62216811D01*
X148134029Y-62207364D01*
X148149541Y-62206927D01*
X148149465Y-62205840D01*
X148161643Y-62204977D01*
X148161644Y-62204976D01*
X148161647Y-62204977D01*
X148186935Y-62198058D01*
X148191917Y-62196695D01*
X148222772Y-62191010D01*
X148230128Y-62186243D01*
X148248691Y-62181165D01*
X148248692Y-62181165D01*
X148332169Y-62158329D01*
X148354981Y-62154330D01*
X148364399Y-62153576D01*
X148381488Y-62144837D01*
X148399998Y-62139774D01*
X148416650Y-62126857D01*
X148620052Y-62022847D01*
X148635716Y-62017450D01*
X148635648Y-62017282D01*
X148646952Y-62012669D01*
X148646956Y-62012669D01*
X148670937Y-61996829D01*
X148696523Y-61983746D01*
X148703951Y-61975022D01*
X148893961Y-61849518D01*
X148908126Y-61843015D01*
X148907657Y-61842099D01*
X148918520Y-61836526D01*
X148918527Y-61836525D01*
X148938780Y-61820471D01*
X148947455Y-61814186D01*
X148969020Y-61799943D01*
X148969022Y-61799940D01*
X148977699Y-61791355D01*
X148978308Y-61791971D01*
X148989021Y-61780648D01*
X149023629Y-61753217D01*
X149039783Y-61743666D01*
X149048385Y-61737854D01*
X149048388Y-61737853D01*
X149067948Y-61718090D01*
X149089740Y-61700818D01*
X149095773Y-61689978D01*
X149246724Y-61537465D01*
X149258976Y-61528500D01*
X149258098Y-61527392D01*
X149267666Y-61519803D01*
X149267668Y-61519801D01*
X149288521Y-61495237D01*
X149311190Y-61472335D01*
X149314176Y-61465019D01*
X149509587Y-61234845D01*
X149522109Y-61222088D01*
X149524792Y-61219721D01*
X149524798Y-61219718D01*
X149543254Y-61195529D01*
X149547146Y-61190688D01*
X149555221Y-61181142D01*
X149557902Y-61179387D01*
X149562841Y-61172135D01*
X149567015Y-61167203D01*
X149567045Y-61167182D01*
X149567162Y-61167030D01*
X149568254Y-61165743D01*
X149568256Y-61165741D01*
X149568257Y-61165737D01*
X149569992Y-61162618D01*
X149579793Y-61147647D01*
X149589135Y-61135404D01*
X149598256Y-61123452D01*
X149598257Y-61123445D01*
X149600081Y-61119723D01*
X149608965Y-61104446D01*
X149704057Y-60964893D01*
X149706801Y-60962967D01*
X149726448Y-60932032D01*
X149747084Y-60901749D01*
X149747084Y-60901746D01*
X149748284Y-60899986D01*
X149755382Y-60886476D01*
X149917876Y-60630638D01*
X149918320Y-60629948D01*
X150029378Y-60458783D01*
X150032227Y-60454585D01*
X150197700Y-60221434D01*
X150203730Y-60213622D01*
X150316266Y-60079292D01*
X150319308Y-60075797D01*
X150502145Y-59873561D01*
X150504965Y-59870547D01*
X150627035Y-59744399D01*
X150742344Y-59626058D01*
X150742345Y-59626057D01*
X150742353Y-59626065D01*
X150742385Y-59626015D01*
X150775983Y-59591567D01*
X150777684Y-59590131D01*
X150785067Y-59582495D01*
X150785069Y-59582495D01*
X150812415Y-59554216D01*
X150840042Y-59525891D01*
X150840042Y-59525890D01*
X150847441Y-59518305D01*
X150848842Y-59516546D01*
X150907724Y-59455656D01*
X150907760Y-59455641D01*
X150937388Y-59424981D01*
X150963148Y-59398343D01*
X150963148Y-59398340D01*
X150972183Y-59388999D01*
X150972295Y-59388856D01*
X151122806Y-59233278D01*
X151124066Y-59231996D01*
X151261488Y-59094332D01*
X151263125Y-59092723D01*
X151491510Y-58872529D01*
X151495048Y-58869252D01*
X151677495Y-58706695D01*
X151679723Y-58704758D01*
X151991939Y-58440279D01*
X151995651Y-58437258D01*
X152240449Y-58245836D01*
X152242455Y-58244302D01*
X152647071Y-57941999D01*
X152650498Y-57939530D01*
X152801324Y-57834741D01*
X152949794Y-57731588D01*
X152951667Y-57730314D01*
X153427009Y-57414041D01*
X153430372Y-57411883D01*
X153762523Y-57206577D01*
X153764606Y-57205319D01*
X154274705Y-56904441D01*
X154278569Y-56902256D01*
X154618251Y-56718165D01*
X154620674Y-56716888D01*
X155130492Y-56455628D01*
X155134916Y-56453472D01*
X155463882Y-56301278D01*
X155466592Y-56300065D01*
X155955730Y-56088283D01*
X155960316Y-56086408D01*
X156272932Y-55965947D01*
X156275484Y-55964997D01*
X156741312Y-55797799D01*
X156745408Y-55796409D01*
X157045828Y-55700350D01*
X157047941Y-55699696D01*
X157075735Y-55691356D01*
X157499707Y-55564135D01*
X157502558Y-55563317D01*
X157800368Y-55481862D01*
X157801548Y-55481547D01*
X158253111Y-55363616D01*
X158254975Y-55363145D01*
X158558620Y-55289057D01*
X158559561Y-55288832D01*
X159022980Y-55180134D01*
X159024795Y-55179724D01*
X159340488Y-55111013D01*
X159341565Y-55110785D01*
X159825156Y-55011232D01*
X159827695Y-55010739D01*
X160158829Y-54950210D01*
X160160642Y-54949894D01*
X160669633Y-54865125D01*
X160673180Y-54864588D01*
X161021584Y-54817226D01*
X161023966Y-54816927D01*
X161560178Y-54754963D01*
X161564498Y-54754542D01*
X161929869Y-54725498D01*
X161932519Y-54725318D01*
X162493850Y-54693332D01*
X162498493Y-54693155D01*
X162877962Y-54685825D01*
X162880673Y-54685804D01*
X163460701Y-54687597D01*
X163465131Y-54687690D01*
X163853264Y-54703080D01*
X163855884Y-54703212D01*
X164444648Y-54739134D01*
X164448847Y-54739462D01*
X164838291Y-54776712D01*
X164840607Y-54776958D01*
X165426760Y-54844863D01*
X165430682Y-54845382D01*
X165813658Y-54902354D01*
X165815868Y-54902704D01*
X166388049Y-54998898D01*
X166391748Y-54999579D01*
X166761536Y-55073570D01*
X166763745Y-55074032D01*
X167312743Y-55194360D01*
X167316349Y-55195208D01*
X167668194Y-55283584D01*
X167670173Y-55284100D01*
X168190539Y-55424866D01*
X168194084Y-55425883D01*
X168470652Y-55509722D01*
X168525590Y-55526376D01*
X168527718Y-55527042D01*
X168662907Y-55570692D01*
X169017118Y-55685061D01*
X169020592Y-55686240D01*
X169331831Y-55797060D01*
X169333806Y-55797783D01*
X169638404Y-55912296D01*
X169793608Y-55970645D01*
X169796902Y-55971938D01*
X170055330Y-56077604D01*
X170089820Y-56091706D01*
X170091676Y-56092482D01*
X170525582Y-56278264D01*
X170528463Y-56279543D01*
X170806732Y-56407322D01*
X170808266Y-56408040D01*
X171222229Y-56605407D01*
X171224603Y-56606570D01*
X171475621Y-56733166D01*
X171492846Y-56741853D01*
X171494164Y-56742528D01*
X171805750Y-56904456D01*
X171894975Y-56950825D01*
X171897042Y-56951924D01*
X172159593Y-57094727D01*
X172160759Y-57095370D01*
X172554939Y-57315284D01*
X172556798Y-57316342D01*
X172817497Y-57467942D01*
X172818398Y-57468473D01*
X173211167Y-57702823D01*
X173213206Y-57704068D01*
X173473903Y-57867047D01*
X173475302Y-57867936D01*
X173868879Y-58121833D01*
X173871587Y-58123632D01*
X174036182Y-58236164D01*
X174132921Y-58302304D01*
X174134758Y-58303585D01*
X174529929Y-58584367D01*
X174533198Y-58586771D01*
X174794830Y-58785864D01*
X174796888Y-58787464D01*
X175192460Y-59101830D01*
X175195928Y-59104691D01*
X175456428Y-59327590D01*
X175458487Y-59329392D01*
X175851232Y-59680749D01*
X175854480Y-59683761D01*
X176111193Y-59930672D01*
X176113012Y-59932459D01*
X176497597Y-60318167D01*
X176500453Y-60321128D01*
X176749194Y-60587728D01*
X176750738Y-60589414D01*
X177112676Y-60992295D01*
X177120332Y-61000817D01*
X177122765Y-61003608D01*
X177358775Y-61282644D01*
X177360130Y-61284274D01*
X177707758Y-61709819D01*
X177709875Y-61712485D01*
X177929197Y-61996637D01*
X177930346Y-61998152D01*
X178250802Y-62427581D01*
X178252776Y-62430302D01*
X178452869Y-62714183D01*
X178454034Y-62715865D01*
X178516022Y-62806966D01*
X178745241Y-63143839D01*
X178747139Y-63146715D01*
X178897864Y-63382289D01*
X178928468Y-63430121D01*
X178929611Y-63431942D01*
X179088088Y-63689429D01*
X179193997Y-63861506D01*
X179195886Y-63864679D01*
X179361527Y-64152678D01*
X179362629Y-64154635D01*
X179605810Y-64595751D01*
X179607567Y-64599055D01*
X179761754Y-64899869D01*
X179762750Y-64901857D01*
X179990907Y-65367368D01*
X179992462Y-65370661D01*
X180138880Y-65693021D01*
X180139753Y-65694988D01*
X180357274Y-66196842D01*
X180358642Y-66200127D01*
X180498549Y-66550106D01*
X180499330Y-66552110D01*
X180706363Y-67097262D01*
X180707608Y-67100691D01*
X180839176Y-67480430D01*
X180839897Y-67482576D01*
X181032134Y-68071987D01*
X181033286Y-68075718D01*
X181152199Y-68483439D01*
X181152862Y-68485797D01*
X181323146Y-69115699D01*
X181324185Y-69119820D01*
X181425142Y-69551483D01*
X181425721Y-69554086D01*
X181537303Y-70082136D01*
X181557824Y-70179251D01*
X181565856Y-70217259D01*
X181566723Y-70221777D01*
X181644454Y-70671519D01*
X181644908Y-70674334D01*
X181747487Y-71361660D01*
X181748107Y-71366454D01*
X181798708Y-71828150D01*
X181798992Y-71831060D01*
X181859199Y-72532828D01*
X181859518Y-72537647D01*
X181881332Y-73005099D01*
X181881432Y-73007940D01*
X181898202Y-73715194D01*
X181898226Y-73719797D01*
X181891948Y-74187523D01*
X181891884Y-74190182D01*
X181867301Y-74894870D01*
X181867080Y-74899113D01*
X181834997Y-75362410D01*
X181834806Y-75364826D01*
X181772974Y-76060249D01*
X181772575Y-76064066D01*
X181717832Y-76519413D01*
X181717562Y-76521506D01*
X181623456Y-77203139D01*
X181622937Y-77206544D01*
X181548807Y-77651812D01*
X181548471Y-77653741D01*
X181426788Y-78319558D01*
X181426185Y-78322633D01*
X181335244Y-78757759D01*
X181334861Y-78759529D01*
X181188838Y-79410566D01*
X181188158Y-79413437D01*
X181081621Y-79840570D01*
X181081189Y-79842253D01*
X180911832Y-80482891D01*
X180911068Y-80485651D01*
X180788690Y-80908773D01*
X180788205Y-80910406D01*
X180594404Y-81547553D01*
X180593552Y-81550246D01*
X180453831Y-81974627D01*
X180453292Y-81976227D01*
X180232136Y-82618382D01*
X180231193Y-82621023D01*
X180071690Y-83052228D01*
X180071095Y-83053802D01*
X179818408Y-83709445D01*
X179817372Y-83712045D01*
X179634875Y-84155468D01*
X179634223Y-84157023D01*
X179344924Y-84833661D01*
X179343785Y-84836243D01*
X179134599Y-85296253D01*
X179133880Y-85297806D01*
X178802318Y-86001000D01*
X178801062Y-86003586D01*
X178561374Y-86482808D01*
X178560582Y-86484364D01*
X178181131Y-87217048D01*
X178179754Y-87219631D01*
X177905976Y-87719038D01*
X177905113Y-87720585D01*
X177472623Y-88483442D01*
X177471136Y-88485995D01*
X177160340Y-89004981D01*
X177159417Y-89006497D01*
X176669989Y-89797843D01*
X176668412Y-89800326D01*
X176318753Y-90336812D01*
X176317786Y-90338274D01*
X175769449Y-91154145D01*
X175767815Y-91156516D01*
X175378899Y-91707118D01*
X175377908Y-91708500D01*
X174771294Y-92542784D01*
X174769641Y-92545006D01*
X174343175Y-93104810D01*
X174342187Y-93106090D01*
X173680901Y-93951042D01*
X173679274Y-93953075D01*
X173219328Y-94516000D01*
X173218372Y-94517156D01*
X172510236Y-95362751D01*
X172508689Y-95364563D01*
X172021980Y-95923572D01*
X172021086Y-95924587D01*
X171278036Y-96759451D01*
X171276606Y-96761031D01*
X170772735Y-97307936D01*
X170771917Y-97308815D01*
X170009304Y-98120639D01*
X170008000Y-98122006D01*
X169498076Y-98648531D01*
X169497334Y-98649291D01*
X168732101Y-99426004D01*
X168730918Y-99427189D01*
X168226227Y-99925803D01*
X168225552Y-99926464D01*
X167474774Y-100656990D01*
X167473696Y-100658027D01*
X166984937Y-101122251D01*
X166984319Y-101122834D01*
X166262858Y-101798739D01*
X166261860Y-101799663D01*
X165797731Y-102225027D01*
X165797154Y-102225553D01*
X165116321Y-102841677D01*
X165115377Y-102842522D01*
X164681343Y-103227308D01*
X164680788Y-103227797D01*
X164046564Y-103783340D01*
X164045643Y-103784139D01*
X163642752Y-104130103D01*
X163642201Y-104130573D01*
X163053192Y-104630412D01*
X163052265Y-104631191D01*
X162676140Y-104944109D01*
X162675583Y-104944570D01*
X162121696Y-105399938D01*
X162120768Y-105400694D01*
X161760924Y-105690757D01*
X161760379Y-105691194D01*
X161223110Y-106119306D01*
X161222235Y-106119996D01*
X160864220Y-106400053D01*
X160863731Y-106400434D01*
X160320266Y-106821192D01*
X160319518Y-106821766D01*
X159947704Y-107105135D01*
X159947304Y-107105439D01*
X159374630Y-107538231D01*
X159374039Y-107538675D01*
X158973457Y-107837675D01*
X158973144Y-107837907D01*
X158352158Y-108298387D01*
X158351690Y-108298733D01*
X157913059Y-108620816D01*
X157912800Y-108621006D01*
X157230583Y-109119233D01*
X157230162Y-109119539D01*
X156749766Y-109467289D01*
X156749603Y-109467407D01*
X156006497Y-110002412D01*
X156006032Y-110002745D01*
X155489472Y-110371044D01*
X155489161Y-110371266D01*
X154697246Y-110932213D01*
X154696656Y-110932628D01*
X154155792Y-111311041D01*
X154155380Y-111311328D01*
X153336096Y-111879611D01*
X153335296Y-111880161D01*
X152787617Y-112253732D01*
X152787049Y-112254117D01*
X151967832Y-112806278D01*
X151966710Y-112807026D01*
X151430861Y-113159786D01*
X151430054Y-113160312D01*
X150639754Y-113671826D01*
X150638143Y-113672851D01*
X150133201Y-113988742D01*
X150132031Y-113989465D01*
X149397010Y-114438029D01*
X149394648Y-114439435D01*
X148936422Y-114705318D01*
X148934695Y-114706302D01*
X148275670Y-115074713D01*
X148272172Y-115076595D01*
X148108684Y-115161233D01*
X147937839Y-115249680D01*
X147937744Y-115249729D01*
X147924399Y-115252978D01*
X147915671Y-115258588D01*
X147880736Y-115263611D01*
X147879412Y-115263611D01*
X147822309Y-115249680D01*
X147651824Y-115161233D01*
X147647908Y-115159112D01*
X147258628Y-114939066D01*
X147256718Y-114937963D01*
X146987055Y-114779138D01*
X146984546Y-114777621D01*
X146549033Y-114507046D01*
X146547874Y-114506317D01*
X146247215Y-114314891D01*
X146245798Y-114313975D01*
X145907811Y-114092261D01*
X145767343Y-114000116D01*
X145766822Y-113999772D01*
X145750709Y-113989069D01*
X145447879Y-113787909D01*
X145437945Y-113781310D01*
X145437433Y-113780967D01*
X144920952Y-113433343D01*
X144567808Y-113194632D01*
X144567689Y-113194551D01*
X144478587Y-113134172D01*
X144478570Y-113134159D01*
X144436148Y-113105416D01*
X144436141Y-113105411D01*
X144397014Y-113078896D01*
X144396977Y-113078875D01*
X144367266Y-113058744D01*
X144052506Y-112845480D01*
X144052494Y-112845461D01*
X144019697Y-112823250D01*
X143995752Y-112807026D01*
X143976522Y-112793997D01*
X143976417Y-112793940D01*
X143791399Y-112668643D01*
X143690720Y-112600461D01*
X143680451Y-112593507D01*
X143680378Y-112593395D01*
X143647014Y-112570863D01*
X143614518Y-112548856D01*
X143614517Y-112548855D01*
X143604873Y-112542324D01*
X143604282Y-112542004D01*
X143146197Y-112232639D01*
X143119134Y-112214362D01*
X143119134Y-112214361D01*
X143109055Y-112207554D01*
X143109000Y-112207472D01*
X143076245Y-112185398D01*
X143043041Y-112162974D01*
X143043039Y-112162973D01*
X143033279Y-112156382D01*
X143032822Y-112156135D01*
X142733924Y-111954704D01*
X142723776Y-111947865D01*
X142723687Y-111947731D01*
X142690619Y-111925520D01*
X142657766Y-111903381D01*
X142657764Y-111903380D01*
X142648244Y-111896965D01*
X142647526Y-111896577D01*
X142148530Y-111561428D01*
X142148528Y-111561427D01*
X142138288Y-111554549D01*
X142138247Y-111554487D01*
X142105291Y-111532386D01*
X142104663Y-111531964D01*
X142104662Y-111531963D01*
X142062395Y-111503576D01*
X142062065Y-111503398D01*
X141756289Y-111298340D01*
X141745994Y-111291436D01*
X141745965Y-111291392D01*
X141712766Y-111269153D01*
X141679791Y-111247039D01*
X141679789Y-111247038D01*
X141670081Y-111240528D01*
X141669845Y-111240400D01*
X141611751Y-111201484D01*
X141611745Y-111201480D01*
X141122795Y-110873900D01*
X141122770Y-110873883D01*
X140729138Y-110610025D01*
X140729008Y-110609869D01*
X140728977Y-110609917D01*
X140141913Y-110215061D01*
X140141914Y-110215058D01*
X140141743Y-110214946D01*
X139753134Y-109952636D01*
X139752708Y-109952348D01*
X139175163Y-109559008D01*
X139174827Y-109558778D01*
X138793489Y-109297233D01*
X138792792Y-109296752D01*
X138227917Y-108903625D01*
X138227429Y-108903284D01*
X137854340Y-108640963D01*
X137853428Y-108640315D01*
X137376804Y-108298733D01*
X137299599Y-108243402D01*
X137299187Y-108243105D01*
X136932271Y-107976877D01*
X136931291Y-107976157D01*
X136382699Y-107569415D01*
X136382136Y-107568995D01*
X136017050Y-107294699D01*
X136016000Y-107293902D01*
X135464277Y-106870129D01*
X135463659Y-106869651D01*
X135094213Y-106582165D01*
X135093220Y-106581383D01*
X134923022Y-106446135D01*
X134529081Y-106133089D01*
X134528598Y-106132703D01*
X134511941Y-106119306D01*
X134148252Y-105826792D01*
X134147348Y-105826058D01*
X133561409Y-105345662D01*
X133560894Y-105345237D01*
X133164279Y-105016475D01*
X133163454Y-105015785D01*
X132549177Y-104497543D01*
X132548696Y-104497135D01*
X132131809Y-104141778D01*
X132131008Y-104141090D01*
X132107642Y-104120827D01*
X131802629Y-103856314D01*
X131484592Y-103580506D01*
X131484107Y-103580083D01*
X131045862Y-103196026D01*
X131045024Y-103195285D01*
X130367631Y-102590754D01*
X130367108Y-102590285D01*
X130152784Y-102396824D01*
X129909103Y-102176864D01*
X129908312Y-102176143D01*
X129494207Y-101794739D01*
X129204644Y-101528042D01*
X129204064Y-101527504D01*
X128730491Y-101085717D01*
X128729465Y-101084749D01*
X128007392Y-100395612D01*
X128006744Y-100394989D01*
X127709188Y-100106851D01*
X127523063Y-99926618D01*
X127521934Y-99925510D01*
X127486739Y-99890535D01*
X127259868Y-99665080D01*
X126791084Y-99199222D01*
X126790361Y-99198498D01*
X126303737Y-98706869D01*
X126302468Y-98705568D01*
X125676938Y-98054790D01*
X125573773Y-97947460D01*
X125572991Y-97946639D01*
X125549423Y-97921659D01*
X125289124Y-97645760D01*
X125090833Y-97435585D01*
X125089447Y-97434092D01*
X124374420Y-96650816D01*
X124373558Y-96649862D01*
X124177509Y-96430577D01*
X123903324Y-96123896D01*
X123901848Y-96122214D01*
X123860224Y-96073921D01*
X123211399Y-95321132D01*
X123210499Y-95320075D01*
X123137578Y-95233501D01*
X122759175Y-94784246D01*
X122757629Y-94782374D01*
X122749399Y-94772204D01*
X122674669Y-94679862D01*
X127010820Y-94679862D01*
X127010820Y-94679863D01*
X127025646Y-94849327D01*
X127080595Y-95010313D01*
X127080598Y-95010320D01*
X127172478Y-95153478D01*
X127172486Y-95153488D01*
X127222410Y-95203747D01*
X127222425Y-95203762D01*
X128259440Y-96073921D01*
X129074302Y-96757672D01*
X129109370Y-96787097D01*
X129167560Y-96827552D01*
X129167562Y-96827553D01*
X129167561Y-96827553D01*
X129324501Y-96893178D01*
X129324507Y-96893180D01*
X129373091Y-96900740D01*
X129492593Y-96919339D01*
X129662057Y-96904513D01*
X129823050Y-96849562D01*
X129966213Y-96757679D01*
X130016494Y-96707734D01*
X131117739Y-95395322D01*
X131158193Y-95337132D01*
X131223820Y-95180189D01*
X131244709Y-95045969D01*
X131274469Y-94982754D01*
X131327173Y-94947688D01*
X131404901Y-94921158D01*
X140449500Y-94921158D01*
X140449500Y-94929001D01*
X140449500Y-95078846D01*
X140480261Y-95233489D01*
X140480264Y-95233501D01*
X140540602Y-95379172D01*
X140540609Y-95379185D01*
X140628210Y-95510288D01*
X140628213Y-95510292D01*
X140739707Y-95621786D01*
X140739711Y-95621789D01*
X140870814Y-95709390D01*
X140870827Y-95709397D01*
X141016498Y-95769735D01*
X141016503Y-95769737D01*
X141144463Y-95795190D01*
X141171153Y-95800499D01*
X141171156Y-95800500D01*
X141171158Y-95800500D01*
X141328844Y-95800500D01*
X141328845Y-95800499D01*
X141483497Y-95769737D01*
X141629179Y-95709394D01*
X141760289Y-95621789D01*
X141871789Y-95510289D01*
X141959394Y-95379179D01*
X142019737Y-95233497D01*
X142050500Y-95078842D01*
X142050500Y-94921158D01*
X142050500Y-94921155D01*
X142050499Y-94921153D01*
X142019739Y-94766511D01*
X142019738Y-94766508D01*
X142019737Y-94766503D01*
X142009937Y-94742844D01*
X142000500Y-94695396D01*
X142000500Y-91629185D01*
X142020185Y-91562146D01*
X142072989Y-91516391D01*
X142142147Y-91506447D01*
X142144667Y-91506836D01*
X142232358Y-91521354D01*
X142366928Y-91509580D01*
X142435427Y-91523346D01*
X142485610Y-91571961D01*
X142501263Y-91622301D01*
X142512986Y-91756307D01*
X142564181Y-91901683D01*
X142649917Y-92029751D01*
X142649921Y-92029756D01*
X142674654Y-92054062D01*
X143443159Y-92698914D01*
X143443164Y-92698919D01*
X143471396Y-92719055D01*
X143612417Y-92781254D01*
X143764461Y-92806424D01*
X143764470Y-92806424D01*
X143917999Y-92792993D01*
X144063374Y-92741798D01*
X144063379Y-92741796D01*
X144098090Y-92718557D01*
X144079283Y-92665153D01*
X144072714Y-92634770D01*
X143952715Y-91263171D01*
X144454622Y-91263171D01*
X144540464Y-92244348D01*
X144540465Y-92244349D01*
X145435800Y-91177330D01*
X144454622Y-91263171D01*
X143952715Y-91263171D01*
X143950130Y-91233620D01*
X143945546Y-91181230D01*
X143959312Y-91112730D01*
X144007927Y-91062547D01*
X144058267Y-91046894D01*
X144183787Y-91035913D01*
X144172805Y-90910393D01*
X144186571Y-90841893D01*
X144235186Y-90791710D01*
X144285526Y-90776057D01*
X145739067Y-90648889D01*
X145770132Y-90650083D01*
X145825985Y-90659332D01*
X145842848Y-90621101D01*
X145868018Y-90469055D01*
X145868018Y-90469045D01*
X145854587Y-90315518D01*
X145803392Y-90170142D01*
X145717656Y-90042074D01*
X145717652Y-90042069D01*
X145692919Y-90017763D01*
X144924414Y-89372911D01*
X144924409Y-89372906D01*
X144896177Y-89352770D01*
X144755156Y-89290571D01*
X144603112Y-89265401D01*
X144603102Y-89265401D01*
X144469097Y-89277124D01*
X144400597Y-89263357D01*
X144350415Y-89214741D01*
X144334763Y-89164405D01*
X144322990Y-89029835D01*
X144322989Y-89029832D01*
X144322989Y-89029830D01*
X144285974Y-88924722D01*
X144271755Y-88884345D01*
X144185947Y-88756166D01*
X144161184Y-88731832D01*
X144128063Y-88704040D01*
X143392615Y-88086925D01*
X143364348Y-88066762D01*
X143364342Y-88066759D01*
X143223214Y-88004514D01*
X143223215Y-88004514D01*
X143092651Y-87982900D01*
X143071038Y-87979322D01*
X143071037Y-87979322D01*
X142917379Y-87992765D01*
X142771884Y-88044002D01*
X142643711Y-88129807D01*
X142643707Y-88129810D01*
X142619381Y-88154564D01*
X142619375Y-88154570D01*
X142619374Y-88154572D01*
X141087469Y-89980226D01*
X141074559Y-89995612D01*
X141054401Y-90023870D01*
X141054399Y-90023875D01*
X140992154Y-90165003D01*
X140966962Y-90317177D01*
X140966663Y-90324977D01*
X140963802Y-90324867D01*
X140952680Y-90380098D01*
X140930623Y-90410044D01*
X140667047Y-90673621D01*
X140625660Y-90735560D01*
X140625661Y-90735561D01*
X140584914Y-90796544D01*
X140528343Y-90933118D01*
X140528340Y-90933128D01*
X140499500Y-91078115D01*
X140499500Y-94695396D01*
X140498049Y-94702687D01*
X140496408Y-94722916D01*
X140494079Y-94733147D01*
X140480263Y-94766503D01*
X140449500Y-94921158D01*
X131404901Y-94921158D01*
X131455730Y-94903809D01*
X131598893Y-94811926D01*
X131649174Y-94761981D01*
X132750419Y-93449569D01*
X132790873Y-93391379D01*
X132856500Y-93234436D01*
X132868089Y-93159966D01*
X132877389Y-93100217D01*
X132907149Y-93037002D01*
X132959859Y-93001934D01*
X133088411Y-92958056D01*
X133231574Y-92866173D01*
X133281855Y-92816228D01*
X133410684Y-92662694D01*
X133468853Y-92623993D01*
X133538714Y-92622884D01*
X133593353Y-92654720D01*
X134167049Y-93228416D01*
X134257516Y-93318883D01*
X134271585Y-93332952D01*
X134394498Y-93415080D01*
X134394511Y-93415087D01*
X134477735Y-93449559D01*
X134531087Y-93471658D01*
X134531091Y-93471658D01*
X134531092Y-93471659D01*
X134676079Y-93500500D01*
X134676082Y-93500500D01*
X136445396Y-93500500D01*
X136492844Y-93509937D01*
X136516503Y-93519737D01*
X136516508Y-93519738D01*
X136516511Y-93519739D01*
X136671153Y-93550499D01*
X136671156Y-93550500D01*
X136671158Y-93550500D01*
X136828844Y-93550500D01*
X136828845Y-93550499D01*
X136983497Y-93519737D01*
X137129179Y-93459394D01*
X137260289Y-93371789D01*
X137371789Y-93260289D01*
X137459394Y-93129179D01*
X137519737Y-92983497D01*
X137550500Y-92828842D01*
X137550500Y-92671158D01*
X137550500Y-92671155D01*
X137550499Y-92671153D01*
X137547230Y-92654720D01*
X137519737Y-92516503D01*
X137500022Y-92468907D01*
X137459397Y-92370827D01*
X137459390Y-92370814D01*
X137371789Y-92239711D01*
X137371786Y-92239707D01*
X137260292Y-92128213D01*
X137260288Y-92128210D01*
X137129185Y-92040609D01*
X137129172Y-92040602D01*
X136983501Y-91980264D01*
X136983489Y-91980261D01*
X136828845Y-91949500D01*
X136828842Y-91949500D01*
X136671158Y-91949500D01*
X136671155Y-91949500D01*
X136516511Y-91980260D01*
X136516506Y-91980262D01*
X136516504Y-91980262D01*
X136516503Y-91980263D01*
X136492844Y-91990062D01*
X136445396Y-91999500D01*
X135112229Y-91999500D01*
X135045190Y-91979815D01*
X135024548Y-91963181D01*
X134506956Y-91445589D01*
X134473471Y-91384266D01*
X134473184Y-91332904D01*
X134475603Y-91321152D01*
X134489181Y-91288683D01*
X134510533Y-91151484D01*
X134511142Y-91148528D01*
X134526189Y-91120224D01*
X134539830Y-91091249D01*
X134542558Y-91089433D01*
X134543940Y-91086835D01*
X134559976Y-91077844D01*
X134592534Y-91056182D01*
X134721091Y-91012303D01*
X134864254Y-90920420D01*
X134914535Y-90870475D01*
X136015780Y-89558063D01*
X136056234Y-89499873D01*
X136121861Y-89342930D01*
X136136762Y-89247184D01*
X136142750Y-89208711D01*
X136172510Y-89145496D01*
X136225220Y-89110428D01*
X136353772Y-89066550D01*
X136496935Y-88974667D01*
X136547216Y-88924722D01*
X136623552Y-88833747D01*
X136681724Y-88795046D01*
X136718542Y-88789454D01*
X139284966Y-88789454D01*
X139382508Y-88770050D01*
X139429959Y-88760612D01*
X139566541Y-88704038D01*
X139615775Y-88671140D01*
X139689462Y-88621906D01*
X142332951Y-85978416D01*
X142415084Y-85855495D01*
X142425369Y-85830666D01*
X142438852Y-85798113D01*
X142471658Y-85718913D01*
X142482073Y-85666557D01*
X142500500Y-85573920D01*
X142500500Y-82926079D01*
X142471659Y-82781092D01*
X142471658Y-82781091D01*
X142471658Y-82781087D01*
X142460681Y-82754587D01*
X142415085Y-82644507D01*
X142415084Y-82644505D01*
X142372099Y-82580173D01*
X142372098Y-82580171D01*
X142372097Y-82580169D01*
X142332955Y-82521589D01*
X142332952Y-82521584D01*
X140871369Y-81060001D01*
X144052704Y-81060001D01*
X144052899Y-81062486D01*
X144098718Y-81220198D01*
X144182314Y-81361552D01*
X144182321Y-81361561D01*
X144298438Y-81477678D01*
X144298447Y-81477685D01*
X144439803Y-81561282D01*
X144439806Y-81561283D01*
X144597504Y-81607099D01*
X144597510Y-81607100D01*
X144634350Y-81609999D01*
X144634366Y-81610000D01*
X145275000Y-81610000D01*
X145275000Y-81060000D01*
X144052705Y-81060000D01*
X144052704Y-81060001D01*
X140871369Y-81060001D01*
X139030478Y-79219110D01*
X138996993Y-79157787D01*
X139001977Y-79088095D01*
X139043849Y-79032162D01*
X139109313Y-79007745D01*
X139142350Y-79009811D01*
X139167772Y-79014868D01*
X139196081Y-79020500D01*
X139196082Y-79020500D01*
X139196083Y-79020500D01*
X139343917Y-79020500D01*
X143964800Y-79020500D01*
X144031839Y-79040185D01*
X144077594Y-79092989D01*
X144087538Y-79162147D01*
X144083876Y-79179095D01*
X144052402Y-79287426D01*
X144052401Y-79287432D01*
X144049500Y-79324298D01*
X144049500Y-79755701D01*
X144052401Y-79792567D01*
X144052402Y-79792573D01*
X144098254Y-79950393D01*
X144098255Y-79950396D01*
X144181917Y-80091862D01*
X144186702Y-80098031D01*
X144184369Y-80099840D01*
X144211210Y-80148995D01*
X144206226Y-80218687D01*
X144185470Y-80251021D01*
X144187097Y-80252283D01*
X144182313Y-80258449D01*
X144098718Y-80399801D01*
X144052899Y-80557513D01*
X144052704Y-80559998D01*
X144052705Y-80560000D01*
X145401000Y-80560000D01*
X145468039Y-80579685D01*
X145513794Y-80632489D01*
X145525000Y-80684000D01*
X145525000Y-80810000D01*
X145651000Y-80810000D01*
X145718039Y-80829685D01*
X145763794Y-80882489D01*
X145775000Y-80934000D01*
X145775000Y-81610000D01*
X146415634Y-81610000D01*
X146415662Y-81609998D01*
X146426000Y-81609185D01*
X146494378Y-81623546D01*
X146544136Y-81672596D01*
X146559733Y-81732802D01*
X146559733Y-91327536D01*
X146540048Y-91394575D01*
X146523414Y-91415217D01*
X142917052Y-95021578D01*
X142917046Y-95021585D01*
X142870049Y-95091922D01*
X142870050Y-95091923D01*
X142834913Y-95144508D01*
X142778343Y-95281082D01*
X142778340Y-95281092D01*
X142749500Y-95426079D01*
X142749500Y-95426082D01*
X142749500Y-100140185D01*
X142749500Y-100140187D01*
X142749499Y-100140187D01*
X142778340Y-100285174D01*
X142778343Y-100285184D01*
X142834914Y-100421759D01*
X142867812Y-100470994D01*
X142867813Y-100470996D01*
X142903135Y-100523860D01*
X142924012Y-100590538D01*
X142905527Y-100657918D01*
X142895022Y-100672455D01*
X142791534Y-100795788D01*
X142791523Y-100795803D01*
X142751075Y-100853984D01*
X142685448Y-101010928D01*
X142685448Y-101010929D01*
X142664473Y-101145705D01*
X142634713Y-101208920D01*
X142582004Y-101243988D01*
X142453758Y-101287762D01*
X142310699Y-101379576D01*
X142310693Y-101379580D01*
X142260464Y-101429473D01*
X142260459Y-101429479D01*
X141159261Y-102741836D01*
X141118833Y-102799987D01*
X141118829Y-102799993D01*
X141053254Y-102956815D01*
X141053253Y-102956820D01*
X141032415Y-103090714D01*
X141002655Y-103153929D01*
X140949946Y-103188997D01*
X140820860Y-103233058D01*
X140820855Y-103233060D01*
X140677697Y-103324940D01*
X140677687Y-103324948D01*
X140627428Y-103374872D01*
X140627410Y-103374891D01*
X140350243Y-103705206D01*
X140292072Y-103743908D01*
X140255254Y-103749500D01*
X139804604Y-103749500D01*
X139757155Y-103740062D01*
X139733497Y-103730263D01*
X139733493Y-103730262D01*
X139733488Y-103730260D01*
X139578845Y-103699500D01*
X139578842Y-103699500D01*
X139421158Y-103699500D01*
X139421155Y-103699500D01*
X139266510Y-103730261D01*
X139266498Y-103730264D01*
X139120827Y-103790602D01*
X139120814Y-103790609D01*
X138989711Y-103878210D01*
X138989707Y-103878213D01*
X138878213Y-103989707D01*
X138878210Y-103989711D01*
X138790609Y-104120814D01*
X138790602Y-104120827D01*
X138730264Y-104266498D01*
X138730261Y-104266510D01*
X138699500Y-104421153D01*
X138699500Y-104578846D01*
X138730261Y-104733489D01*
X138730264Y-104733501D01*
X138790602Y-104879172D01*
X138790609Y-104879185D01*
X138878210Y-105010288D01*
X138878213Y-105010292D01*
X138989707Y-105121786D01*
X138989711Y-105121789D01*
X139120814Y-105209390D01*
X139120827Y-105209397D01*
X139226803Y-105253293D01*
X139266503Y-105269737D01*
X139342704Y-105284894D01*
X139359930Y-105288321D01*
X139421841Y-105320705D01*
X139453091Y-105369882D01*
X139463704Y-105400977D01*
X139463706Y-105400981D01*
X139555586Y-105544139D01*
X139555594Y-105544149D01*
X139605518Y-105594408D01*
X139605533Y-105594423D01*
X140576947Y-106409536D01*
X141475533Y-107163540D01*
X141492478Y-107177758D01*
X141550668Y-107218213D01*
X141550670Y-107218214D01*
X141550669Y-107218214D01*
X141707609Y-107283839D01*
X141707615Y-107283841D01*
X141756199Y-107291401D01*
X141875701Y-107310000D01*
X142045165Y-107295174D01*
X142206158Y-107240223D01*
X142349321Y-107148340D01*
X142399602Y-107098395D01*
X143500847Y-105785983D01*
X143541301Y-105727793D01*
X143606928Y-105570850D01*
X143627903Y-105436073D01*
X143657662Y-105372859D01*
X143710372Y-105337790D01*
X143838619Y-105294015D01*
X143981678Y-105202201D01*
X143981684Y-105202197D01*
X144031913Y-105152304D01*
X144031918Y-105152298D01*
X145133116Y-103839941D01*
X145173544Y-103781790D01*
X145173548Y-103781784D01*
X145239123Y-103624962D01*
X145239124Y-103624956D01*
X145259962Y-103491062D01*
X145289721Y-103427847D01*
X145342426Y-103392780D01*
X145471519Y-103348718D01*
X145614682Y-103256835D01*
X145664963Y-103206890D01*
X146766208Y-101894478D01*
X146806662Y-101836288D01*
X146872289Y-101679345D01*
X146893178Y-101545126D01*
X146922938Y-101481911D01*
X146975648Y-101446843D01*
X147104200Y-101402965D01*
X147247363Y-101311082D01*
X147297644Y-101261137D01*
X148398889Y-99948725D01*
X148439343Y-99890535D01*
X148504970Y-99733592D01*
X148525859Y-99599372D01*
X148529559Y-99591512D01*
X148529609Y-99582824D01*
X148544214Y-99560381D01*
X148555619Y-99536157D01*
X148563980Y-99530009D01*
X148567721Y-99524263D01*
X148585947Y-99513860D01*
X148597521Y-99505353D01*
X148602816Y-99502971D01*
X148736880Y-99457212D01*
X148812579Y-99408627D01*
X148820956Y-99404860D01*
X148846830Y-99401291D01*
X148871893Y-99393948D01*
X148880883Y-99396593D01*
X148890170Y-99395313D01*
X148913866Y-99406299D01*
X148938921Y-99413673D01*
X148951304Y-99423658D01*
X148953558Y-99424703D01*
X148954561Y-99426284D01*
X148959495Y-99430262D01*
X149039139Y-99509906D01*
X149112185Y-99582952D01*
X149235098Y-99665080D01*
X149235111Y-99665087D01*
X149371682Y-99721656D01*
X149371687Y-99721658D01*
X149371691Y-99721658D01*
X149371692Y-99721659D01*
X149516679Y-99750500D01*
X149516682Y-99750500D01*
X154073920Y-99750500D01*
X154171462Y-99731096D01*
X154218913Y-99721658D01*
X154355495Y-99665084D01*
X154404729Y-99632186D01*
X154478416Y-99582952D01*
X157582952Y-96478415D01*
X157647927Y-96381172D01*
X157665084Y-96355495D01*
X157694716Y-96283956D01*
X157721659Y-96218912D01*
X157750500Y-96073917D01*
X157750500Y-95926082D01*
X157750500Y-90199986D01*
X163962501Y-90199986D01*
X163972994Y-90302697D01*
X164028141Y-90469119D01*
X164028143Y-90469124D01*
X164120184Y-90618345D01*
X164244154Y-90742315D01*
X164393375Y-90834356D01*
X164393380Y-90834358D01*
X164559802Y-90889505D01*
X164559809Y-90889506D01*
X164662519Y-90899999D01*
X164874999Y-90899999D01*
X164875000Y-90899998D01*
X164875000Y-89750000D01*
X163962501Y-89750000D01*
X163962501Y-90199986D01*
X157750500Y-90199986D01*
X157750500Y-88800013D01*
X163962500Y-88800013D01*
X163962500Y-89250000D01*
X164875000Y-89250000D01*
X165375000Y-89250000D01*
X166287499Y-89250000D01*
X166287499Y-88800028D01*
X166287498Y-88800013D01*
X166277005Y-88697302D01*
X166221858Y-88530880D01*
X166221856Y-88530875D01*
X166129815Y-88381654D01*
X166005845Y-88257684D01*
X165856624Y-88165643D01*
X165856619Y-88165641D01*
X165690197Y-88110494D01*
X165690190Y-88110493D01*
X165587486Y-88100000D01*
X165375000Y-88100000D01*
X165375000Y-89250000D01*
X164875000Y-89250000D01*
X164875000Y-88100000D01*
X164662529Y-88100000D01*
X164662512Y-88100001D01*
X164559802Y-88110494D01*
X164393380Y-88165641D01*
X164393375Y-88165643D01*
X164244154Y-88257684D01*
X164120184Y-88381654D01*
X164028143Y-88530875D01*
X164028141Y-88530880D01*
X163972994Y-88697302D01*
X163972993Y-88697309D01*
X163962500Y-88800013D01*
X157750500Y-88800013D01*
X157750500Y-83899986D01*
X163600001Y-83899986D01*
X163610494Y-84002697D01*
X163665641Y-84169119D01*
X163665643Y-84169124D01*
X163757684Y-84318345D01*
X163881654Y-84442315D01*
X164030875Y-84534356D01*
X164030880Y-84534358D01*
X164197302Y-84589505D01*
X164197309Y-84589506D01*
X164300019Y-84599999D01*
X164749999Y-84599999D01*
X164750000Y-84599998D01*
X164750000Y-83687500D01*
X163600001Y-83687500D01*
X163600001Y-83899986D01*
X157750500Y-83899986D01*
X157750500Y-80426082D01*
X157750500Y-80426079D01*
X157735310Y-80349718D01*
X157733955Y-80342905D01*
X157721659Y-80281088D01*
X157688278Y-80200500D01*
X157665084Y-80144505D01*
X157619439Y-80076192D01*
X157619438Y-80076190D01*
X157619437Y-80076188D01*
X157582955Y-80021589D01*
X157582952Y-80021584D01*
X152708416Y-75147048D01*
X152617498Y-75086300D01*
X152585495Y-75064916D01*
X152585493Y-75064915D01*
X152585490Y-75064913D01*
X152448917Y-75008343D01*
X152448907Y-75008340D01*
X152303920Y-74979500D01*
X152303918Y-74979500D01*
X152035200Y-74979500D01*
X151968161Y-74959815D01*
X151922406Y-74907011D01*
X151912462Y-74837853D01*
X151916124Y-74820905D01*
X151947597Y-74712573D01*
X151947598Y-74712567D01*
X151950500Y-74675694D01*
X151950500Y-74244306D01*
X151947598Y-74207431D01*
X151932366Y-74155001D01*
X154052704Y-74155001D01*
X154052899Y-74157486D01*
X154098718Y-74315198D01*
X154182314Y-74456552D01*
X154182321Y-74456561D01*
X154298438Y-74572678D01*
X154298447Y-74572685D01*
X154439803Y-74656282D01*
X154439806Y-74656283D01*
X154597504Y-74702099D01*
X154597510Y-74702100D01*
X154634350Y-74704999D01*
X154634366Y-74705000D01*
X155275000Y-74705000D01*
X155275000Y-74155000D01*
X154052705Y-74155000D01*
X154052704Y-74155001D01*
X151932366Y-74155001D01*
X151901744Y-74049602D01*
X151818081Y-73908135D01*
X151818078Y-73908132D01*
X151813298Y-73901969D01*
X151815750Y-73900066D01*
X151789155Y-73851421D01*
X151794104Y-73781726D01*
X151814940Y-73749304D01*
X151813298Y-73748031D01*
X151818075Y-73741870D01*
X151818081Y-73741865D01*
X151901744Y-73600398D01*
X151947598Y-73442569D01*
X151950500Y-73405694D01*
X151950500Y-72974306D01*
X151947598Y-72937431D01*
X151901744Y-72779602D01*
X151818081Y-72638135D01*
X151818079Y-72638133D01*
X151818076Y-72638129D01*
X151701870Y-72521923D01*
X151701862Y-72521917D01*
X151612625Y-72469143D01*
X151560398Y-72438256D01*
X151560397Y-72438255D01*
X151560396Y-72438255D01*
X151560393Y-72438254D01*
X151402573Y-72392402D01*
X151402567Y-72392401D01*
X151365701Y-72389500D01*
X151365694Y-72389500D01*
X149584306Y-72389500D01*
X149584298Y-72389500D01*
X149547432Y-72392401D01*
X149547426Y-72392402D01*
X149402267Y-72434576D01*
X149367672Y-72439500D01*
X147356546Y-72439500D01*
X147211558Y-72468340D01*
X147211548Y-72468343D01*
X147074977Y-72524912D01*
X147074964Y-72524919D01*
X146967694Y-72596596D01*
X146901017Y-72617474D01*
X146833636Y-72598990D01*
X146811122Y-72581175D01*
X146751870Y-72521923D01*
X146751862Y-72521917D01*
X146662625Y-72469143D01*
X146610398Y-72438256D01*
X146610397Y-72438255D01*
X146610396Y-72438255D01*
X146610393Y-72438254D01*
X146452573Y-72392402D01*
X146452567Y-72392401D01*
X146415701Y-72389500D01*
X146415694Y-72389500D01*
X144634306Y-72389500D01*
X144634298Y-72389500D01*
X144597432Y-72392401D01*
X144597426Y-72392402D01*
X144452267Y-72434576D01*
X144417672Y-72439500D01*
X140052230Y-72439500D01*
X139985191Y-72419815D01*
X139964549Y-72403181D01*
X139135288Y-71573920D01*
X151749499Y-71573920D01*
X151778340Y-71718907D01*
X151778343Y-71718917D01*
X151834914Y-71855492D01*
X151834915Y-71855494D01*
X151834916Y-71855495D01*
X151854296Y-71884500D01*
X151857226Y-71888884D01*
X151857227Y-71888887D01*
X151917046Y-71978414D01*
X151917052Y-71978421D01*
X153156580Y-73217948D01*
X153156584Y-73217951D01*
X153279498Y-73300080D01*
X153279511Y-73300087D01*
X153403494Y-73351442D01*
X153416087Y-73356658D01*
X153416091Y-73356658D01*
X153416092Y-73356659D01*
X153561079Y-73385500D01*
X153561082Y-73385500D01*
X153708917Y-73385500D01*
X153965321Y-73385500D01*
X154032360Y-73405185D01*
X154078115Y-73457989D01*
X154088059Y-73527147D01*
X154084397Y-73544095D01*
X154052900Y-73652505D01*
X154052899Y-73652511D01*
X154052704Y-73654998D01*
X154052705Y-73655000D01*
X155401000Y-73655000D01*
X155468039Y-73674685D01*
X155513794Y-73727489D01*
X155525000Y-73779000D01*
X155525000Y-73905000D01*
X155651000Y-73905000D01*
X155718039Y-73924685D01*
X155763794Y-73977489D01*
X155775000Y-74029000D01*
X155775000Y-74705000D01*
X156415634Y-74705000D01*
X156415649Y-74704999D01*
X156452489Y-74702100D01*
X156452495Y-74702099D01*
X156610193Y-74656283D01*
X156610196Y-74656282D01*
X156751552Y-74572685D01*
X156751561Y-74572678D01*
X156867678Y-74456561D01*
X156867685Y-74456552D01*
X156951281Y-74315197D01*
X156973156Y-74239905D01*
X157010762Y-74181019D01*
X157074235Y-74151812D01*
X157092221Y-74150499D01*
X157421734Y-74150499D01*
X157488771Y-74170184D01*
X157534526Y-74222988D01*
X157544470Y-74292146D01*
X157515445Y-74355702D01*
X157494374Y-74374292D01*
X157494419Y-74374347D01*
X157492885Y-74375605D01*
X157490626Y-74377599D01*
X157489712Y-74378209D01*
X157489707Y-74378213D01*
X157378213Y-74489707D01*
X157378210Y-74489711D01*
X157290609Y-74620814D01*
X157290602Y-74620827D01*
X157230264Y-74766498D01*
X157230261Y-74766510D01*
X157199500Y-74921153D01*
X157199500Y-75078846D01*
X157230261Y-75233489D01*
X157230264Y-75233501D01*
X157290602Y-75379172D01*
X157290609Y-75379185D01*
X157378210Y-75510288D01*
X157378213Y-75510292D01*
X157489707Y-75621786D01*
X157489711Y-75621789D01*
X157620814Y-75709390D01*
X157620827Y-75709397D01*
X157766498Y-75769735D01*
X157766503Y-75769737D01*
X157921153Y-75800499D01*
X157921156Y-75800500D01*
X157921158Y-75800500D01*
X158078844Y-75800500D01*
X158078845Y-75800499D01*
X158233497Y-75769737D01*
X158379179Y-75709394D01*
X158510289Y-75621789D01*
X158621789Y-75510289D01*
X158709394Y-75379179D01*
X158719191Y-75355528D01*
X158755757Y-75267247D01*
X158769737Y-75233497D01*
X158800500Y-75078842D01*
X158800500Y-74921158D01*
X158800500Y-74921155D01*
X158800499Y-74921153D01*
X158792606Y-74881473D01*
X158769737Y-74766503D01*
X158769267Y-74765368D01*
X158709397Y-74620827D01*
X158709390Y-74620814D01*
X158621789Y-74489711D01*
X158621786Y-74489707D01*
X158510292Y-74378213D01*
X158510287Y-74378209D01*
X158509374Y-74377599D01*
X158509003Y-74377155D01*
X158505581Y-74374347D01*
X158506113Y-74373697D01*
X158464570Y-74323985D01*
X158455865Y-74254660D01*
X158486022Y-74191633D01*
X158545466Y-74154916D01*
X158578266Y-74150499D01*
X158907246Y-74150499D01*
X158974285Y-74170184D01*
X159020040Y-74222988D01*
X159026322Y-74239904D01*
X159048253Y-74315393D01*
X159048255Y-74315396D01*
X159048256Y-74315398D01*
X159063636Y-74341404D01*
X159131917Y-74456862D01*
X159131923Y-74456870D01*
X159248129Y-74573076D01*
X159248133Y-74573079D01*
X159248135Y-74573081D01*
X159389602Y-74656744D01*
X159431224Y-74668836D01*
X159547426Y-74702597D01*
X159547429Y-74702597D01*
X159547431Y-74702598D01*
X159584306Y-74705500D01*
X160162770Y-74705500D01*
X160229809Y-74725185D01*
X160250451Y-74741819D01*
X160656982Y-75148350D01*
X160667077Y-75166837D01*
X160681157Y-75182512D01*
X160683487Y-75196890D01*
X160690467Y-75209673D01*
X160688964Y-75230684D01*
X160692335Y-75251482D01*
X160686521Y-75264837D01*
X160685483Y-75279365D01*
X160672857Y-75296230D01*
X160664450Y-75315546D01*
X160645970Y-75332146D01*
X160643611Y-75335298D01*
X160638194Y-75339132D01*
X160610758Y-75357465D01*
X160610755Y-75357466D01*
X160521585Y-75417046D01*
X160521578Y-75417052D01*
X158704689Y-77233941D01*
X158643366Y-77267426D01*
X158626622Y-77269682D01*
X158626629Y-77269745D01*
X158624285Y-77269996D01*
X158623654Y-77270082D01*
X158623334Y-77270099D01*
X158563716Y-77276508D01*
X158428871Y-77326801D01*
X158428864Y-77326805D01*
X158313655Y-77413051D01*
X158313652Y-77413054D01*
X158227406Y-77528263D01*
X158227402Y-77528270D01*
X158177853Y-77661121D01*
X158177109Y-77663116D01*
X158170700Y-77722726D01*
X158170700Y-77722733D01*
X158170700Y-77722734D01*
X158170700Y-78377269D01*
X158170701Y-78377275D01*
X158177108Y-78436882D01*
X158193812Y-78481667D01*
X158198796Y-78551359D01*
X158193812Y-78568331D01*
X158177110Y-78613111D01*
X158177110Y-78613113D01*
X158177109Y-78613117D01*
X158170700Y-78672727D01*
X158170700Y-78672734D01*
X158170700Y-78672735D01*
X158170700Y-79327270D01*
X158170701Y-79327276D01*
X158177108Y-79386883D01*
X158193812Y-79431668D01*
X158198796Y-79501360D01*
X158193812Y-79518332D01*
X158177110Y-79563112D01*
X158177109Y-79563116D01*
X158177109Y-79563118D01*
X158170700Y-79622728D01*
X158170700Y-79622735D01*
X158170700Y-79622736D01*
X158170700Y-80277271D01*
X158170701Y-80277277D01*
X158177108Y-80336884D01*
X158227402Y-80471729D01*
X158227406Y-80471736D01*
X158313652Y-80586945D01*
X158313655Y-80586948D01*
X158428864Y-80673194D01*
X158428871Y-80673198D01*
X158457833Y-80684000D01*
X158563717Y-80723492D01*
X158623327Y-80729901D01*
X158827318Y-80729900D01*
X158894358Y-80749584D01*
X158915000Y-80766219D01*
X159772328Y-81623546D01*
X160627197Y-82478415D01*
X160627198Y-82478416D01*
X160693322Y-82544540D01*
X160731734Y-82582952D01*
X160854647Y-82665080D01*
X160854660Y-82665087D01*
X160991231Y-82721656D01*
X160991236Y-82721658D01*
X160991240Y-82721658D01*
X160991241Y-82721659D01*
X161136228Y-82750500D01*
X163485624Y-82750500D01*
X163552663Y-82770185D01*
X163598418Y-82822989D01*
X163608982Y-82887103D01*
X163600000Y-82975013D01*
X163600000Y-83187500D01*
X164876000Y-83187500D01*
X164943039Y-83207185D01*
X164988794Y-83259989D01*
X165000000Y-83311500D01*
X165000000Y-83437500D01*
X165126000Y-83437500D01*
X165193039Y-83457185D01*
X165238794Y-83509989D01*
X165250000Y-83561500D01*
X165250000Y-84599999D01*
X165601770Y-84599999D01*
X165668809Y-84619684D01*
X165714564Y-84672488D01*
X165724508Y-84741646D01*
X165695483Y-84805202D01*
X165689451Y-84811680D01*
X165137949Y-85363181D01*
X165076626Y-85396666D01*
X165050268Y-85399500D01*
X164299998Y-85399500D01*
X164299980Y-85399501D01*
X164197203Y-85410000D01*
X164197200Y-85410001D01*
X164030668Y-85465185D01*
X164030663Y-85465187D01*
X163881342Y-85557289D01*
X163757289Y-85681342D01*
X163665187Y-85830663D01*
X163665186Y-85830666D01*
X163610001Y-85997203D01*
X163610001Y-85997204D01*
X163610000Y-85997204D01*
X163599500Y-86099983D01*
X163599500Y-87025001D01*
X163599501Y-87025019D01*
X163610000Y-87127796D01*
X163610001Y-87127799D01*
X163656901Y-87269331D01*
X163665186Y-87294334D01*
X163757288Y-87443656D01*
X163881344Y-87567712D01*
X164030666Y-87659814D01*
X164197203Y-87714999D01*
X164299991Y-87725500D01*
X165700008Y-87725499D01*
X165802797Y-87714999D01*
X165969334Y-87659814D01*
X166118656Y-87567712D01*
X166242712Y-87443656D01*
X166334814Y-87294334D01*
X166389999Y-87127797D01*
X166400500Y-87025009D01*
X166400499Y-86274728D01*
X166420183Y-86207690D01*
X166436813Y-86187053D01*
X166667934Y-85955932D01*
X166729255Y-85922449D01*
X166798947Y-85927433D01*
X166854880Y-85969305D01*
X166879297Y-86034769D01*
X166878971Y-86056215D01*
X166874501Y-86099976D01*
X166874500Y-86099996D01*
X166874500Y-87000001D01*
X166874501Y-87000019D01*
X166885000Y-87102796D01*
X166885001Y-87102799D01*
X166916945Y-87199197D01*
X166940186Y-87269334D01*
X167032288Y-87418656D01*
X167156344Y-87542712D01*
X167305666Y-87634814D01*
X167414505Y-87670879D01*
X167471949Y-87710652D01*
X167498772Y-87775167D01*
X167499500Y-87788585D01*
X167499500Y-88107491D01*
X167479815Y-88174530D01*
X167440598Y-88213029D01*
X167368844Y-88257287D01*
X167244789Y-88381342D01*
X167152687Y-88530663D01*
X167152685Y-88530668D01*
X167152615Y-88530880D01*
X167097501Y-88697203D01*
X167097501Y-88697204D01*
X167097500Y-88697204D01*
X167087000Y-88799983D01*
X167087000Y-89550269D01*
X167067315Y-89617308D01*
X167050681Y-89637950D01*
X166559703Y-90128927D01*
X166558428Y-90129862D01*
X166558019Y-90130579D01*
X166552772Y-90134013D01*
X166529368Y-90151189D01*
X166524515Y-90153720D01*
X166495821Y-90165606D01*
X166474802Y-90179650D01*
X166468846Y-90182757D01*
X166440898Y-90188281D01*
X166413712Y-90196794D01*
X166407064Y-90194970D01*
X166400303Y-90196307D01*
X166373806Y-90185846D01*
X166346332Y-90178309D01*
X166341725Y-90173180D01*
X166335315Y-90170650D01*
X166318679Y-90147523D01*
X166299642Y-90126329D01*
X166297894Y-90118628D01*
X166294515Y-90113930D01*
X166293819Y-90100667D01*
X166287500Y-90072814D01*
X166287500Y-89750000D01*
X165375000Y-89750000D01*
X165375000Y-90899999D01*
X165587472Y-90899999D01*
X165587486Y-90899998D01*
X165690197Y-90889505D01*
X165856619Y-90834358D01*
X165856630Y-90834353D01*
X165885403Y-90816606D01*
X165952795Y-90798165D01*
X166019459Y-90819087D01*
X166064228Y-90872729D01*
X166074500Y-90922144D01*
X166074500Y-90953846D01*
X166105261Y-91108489D01*
X166105264Y-91108501D01*
X166165602Y-91254172D01*
X166165609Y-91254185D01*
X166253210Y-91385288D01*
X166253213Y-91385292D01*
X166364707Y-91496786D01*
X166364711Y-91496789D01*
X166495814Y-91584390D01*
X166495827Y-91584397D01*
X166641498Y-91644735D01*
X166641503Y-91644737D01*
X166796153Y-91675499D01*
X166796156Y-91675500D01*
X166796158Y-91675500D01*
X166953844Y-91675500D01*
X166953845Y-91675499D01*
X167108497Y-91644737D01*
X167254179Y-91584394D01*
X167385289Y-91496789D01*
X167496789Y-91385289D01*
X167584394Y-91254179D01*
X167594191Y-91230524D01*
X167621070Y-91190296D01*
X167874548Y-90936817D01*
X167935871Y-90903333D01*
X167962229Y-90900499D01*
X168712502Y-90900499D01*
X168712508Y-90900499D01*
X168815297Y-90889999D01*
X168981834Y-90834814D01*
X169131156Y-90742712D01*
X169255212Y-90618656D01*
X169347314Y-90469334D01*
X169402499Y-90302797D01*
X169413000Y-90200009D01*
X169412999Y-88799992D01*
X169402499Y-88697203D01*
X169347314Y-88530666D01*
X169255212Y-88381344D01*
X169131156Y-88257288D01*
X169131155Y-88257287D01*
X169059402Y-88213029D01*
X169012678Y-88161081D01*
X169000500Y-88107491D01*
X169000500Y-87788585D01*
X169020185Y-87721546D01*
X169072989Y-87675791D01*
X169085489Y-87670881D01*
X169194334Y-87634814D01*
X169343656Y-87542712D01*
X169467712Y-87418656D01*
X169504259Y-87359402D01*
X169556207Y-87312679D01*
X169609798Y-87300500D01*
X170203116Y-87300500D01*
X170270155Y-87320185D01*
X170311770Y-87368211D01*
X170313180Y-87367475D01*
X170316090Y-87373045D01*
X170316091Y-87373049D01*
X170410302Y-87553407D01*
X170410304Y-87553409D01*
X170538890Y-87711109D01*
X170617452Y-87775167D01*
X170696593Y-87839698D01*
X170876951Y-87933909D01*
X171072582Y-87989886D01*
X171191963Y-88000500D01*
X174308036Y-88000499D01*
X174427418Y-87989886D01*
X174623049Y-87933909D01*
X174803407Y-87839698D01*
X174961109Y-87711109D01*
X175089698Y-87553407D01*
X175183909Y-87373049D01*
X175239886Y-87177418D01*
X175250500Y-87058037D01*
X175250499Y-85941964D01*
X175239886Y-85822582D01*
X175183909Y-85626951D01*
X175089698Y-85446593D01*
X175037684Y-85382803D01*
X174961109Y-85288890D01*
X174838764Y-85189132D01*
X174803407Y-85160302D01*
X174623049Y-85066091D01*
X174623048Y-85066090D01*
X174623045Y-85066089D01*
X174501743Y-85031381D01*
X174427418Y-85010114D01*
X174427415Y-85010113D01*
X174427413Y-85010113D01*
X174361102Y-85004217D01*
X174308037Y-84999500D01*
X174308032Y-84999500D01*
X171191971Y-84999500D01*
X171191965Y-84999500D01*
X171191964Y-84999501D01*
X171180625Y-85000509D01*
X171072584Y-85010113D01*
X170876954Y-85066089D01*
X170844272Y-85083161D01*
X170696593Y-85160302D01*
X170696591Y-85160303D01*
X170696590Y-85160304D01*
X170538890Y-85288890D01*
X170410302Y-85446592D01*
X170316090Y-85626953D01*
X170292439Y-85709612D01*
X170255072Y-85768649D01*
X170191718Y-85798113D01*
X170173223Y-85799500D01*
X169609798Y-85799500D01*
X169542759Y-85779815D01*
X169504259Y-85740597D01*
X169490887Y-85718917D01*
X169467712Y-85681344D01*
X169343656Y-85557288D01*
X169194334Y-85465186D01*
X169027797Y-85410001D01*
X169027795Y-85410000D01*
X168925010Y-85399500D01*
X167574998Y-85399500D01*
X167574978Y-85399502D01*
X167531215Y-85403972D01*
X167462522Y-85391201D01*
X167411639Y-85343320D01*
X167394719Y-85275530D01*
X167417136Y-85209354D01*
X167430929Y-85192937D01*
X167452951Y-85170916D01*
X167535084Y-85047995D01*
X167591658Y-84911413D01*
X167617200Y-84783007D01*
X167620500Y-84766420D01*
X167620500Y-84723999D01*
X167640185Y-84656960D01*
X167692989Y-84611205D01*
X167744500Y-84599999D01*
X168000000Y-84599999D01*
X168500000Y-84599999D01*
X168924972Y-84599999D01*
X168924986Y-84599998D01*
X169027697Y-84589505D01*
X169194119Y-84534358D01*
X169194124Y-84534356D01*
X169343345Y-84442315D01*
X169467315Y-84318345D01*
X169559356Y-84169124D01*
X169559358Y-84169119D01*
X169614505Y-84002697D01*
X169614506Y-84002690D01*
X169624999Y-83899986D01*
X169625000Y-83899973D01*
X169625000Y-83700000D01*
X168500000Y-83700000D01*
X168500000Y-84599999D01*
X168000000Y-84599999D01*
X168000000Y-83574000D01*
X168004698Y-83558000D01*
X170250000Y-83558000D01*
X170260608Y-83677325D01*
X170260609Y-83677328D01*
X170316557Y-83872861D01*
X170410721Y-84053129D01*
X170539246Y-84210753D01*
X170696870Y-84339278D01*
X170877138Y-84433442D01*
X171072671Y-84489390D01*
X171072674Y-84489391D01*
X171191999Y-84499999D01*
X171192002Y-84500000D01*
X172500000Y-84500000D01*
X173000000Y-84500000D01*
X174307998Y-84500000D01*
X174308000Y-84499999D01*
X174427325Y-84489391D01*
X174427328Y-84489390D01*
X174622861Y-84433442D01*
X174803129Y-84339278D01*
X174960753Y-84210753D01*
X175089278Y-84053129D01*
X175183442Y-83872861D01*
X175239390Y-83677328D01*
X175239391Y-83677325D01*
X175249999Y-83558000D01*
X175250000Y-83557998D01*
X175250000Y-83250000D01*
X173000000Y-83250000D01*
X173000000Y-84500000D01*
X172500000Y-84500000D01*
X172500000Y-83250000D01*
X170250000Y-83250000D01*
X170250000Y-83558000D01*
X168004698Y-83558000D01*
X168019685Y-83506961D01*
X168072489Y-83461206D01*
X168124000Y-83450000D01*
X168250000Y-83450000D01*
X168250000Y-83324000D01*
X168269685Y-83256961D01*
X168322489Y-83211206D01*
X168374000Y-83200000D01*
X169624999Y-83200000D01*
X169624999Y-83000028D01*
X169624998Y-83000013D01*
X169614505Y-82897302D01*
X169559358Y-82730880D01*
X169559356Y-82730875D01*
X169467315Y-82581654D01*
X169343345Y-82457684D01*
X169317916Y-82441999D01*
X170250000Y-82441999D01*
X170250000Y-82750000D01*
X172500000Y-82750000D01*
X173000000Y-82750000D01*
X175250000Y-82750000D01*
X175250000Y-82442002D01*
X175249999Y-82441999D01*
X175239391Y-82322674D01*
X175239390Y-82322671D01*
X175183442Y-82127138D01*
X175089278Y-81946870D01*
X174960753Y-81789246D01*
X174803129Y-81660721D01*
X174622861Y-81566557D01*
X174427328Y-81510609D01*
X174427325Y-81510608D01*
X174308000Y-81500000D01*
X173000000Y-81500000D01*
X173000000Y-82750000D01*
X172500000Y-82750000D01*
X172500000Y-81500000D01*
X171191999Y-81500000D01*
X171072674Y-81510608D01*
X171072671Y-81510609D01*
X170877138Y-81566557D01*
X170696870Y-81660721D01*
X170539246Y-81789246D01*
X170410721Y-81946870D01*
X170316557Y-82127138D01*
X170260609Y-82322671D01*
X170260608Y-82322674D01*
X170250000Y-82441999D01*
X169317916Y-82441999D01*
X169194124Y-82365643D01*
X169194119Y-82365641D01*
X169027697Y-82310494D01*
X169027690Y-82310493D01*
X168924986Y-82300000D01*
X168661070Y-82300000D01*
X168594031Y-82280315D01*
X168548276Y-82227511D01*
X168538332Y-82158353D01*
X168567357Y-82094797D01*
X168573375Y-82088333D01*
X170324223Y-80337486D01*
X172350001Y-80337486D01*
X172360494Y-80440197D01*
X172415641Y-80606619D01*
X172415643Y-80606624D01*
X172507684Y-80755845D01*
X172631654Y-80879815D01*
X172780875Y-80971856D01*
X172780880Y-80971858D01*
X172947302Y-81027005D01*
X172947309Y-81027006D01*
X173050019Y-81037499D01*
X173499999Y-81037499D01*
X174000000Y-81037499D01*
X174449972Y-81037499D01*
X174449986Y-81037498D01*
X174552697Y-81027005D01*
X174719119Y-80971858D01*
X174719124Y-80971856D01*
X174868345Y-80879815D01*
X174992315Y-80755845D01*
X175084356Y-80606624D01*
X175084358Y-80606619D01*
X175139505Y-80440197D01*
X175139506Y-80440190D01*
X175149999Y-80337486D01*
X175150000Y-80337473D01*
X175150000Y-80125000D01*
X174000000Y-80125000D01*
X174000000Y-81037499D01*
X173499999Y-81037499D01*
X173500000Y-81037498D01*
X173500000Y-80125000D01*
X172350001Y-80125000D01*
X172350001Y-80337486D01*
X170324223Y-80337486D01*
X170374890Y-80286819D01*
X170436213Y-80253334D01*
X170462571Y-80250500D01*
X170965686Y-80250500D01*
X170965694Y-80250500D01*
X171002569Y-80247598D01*
X171002571Y-80247597D01*
X171002573Y-80247597D01*
X171102080Y-80218687D01*
X171160398Y-80201744D01*
X171301865Y-80118081D01*
X171418081Y-80001865D01*
X171501744Y-79860398D01*
X171547598Y-79702569D01*
X171550500Y-79665694D01*
X171550500Y-79412513D01*
X172350000Y-79412513D01*
X172350000Y-79625000D01*
X173500000Y-79625000D01*
X174000000Y-79625000D01*
X175149999Y-79625000D01*
X175149999Y-79412528D01*
X175149998Y-79412513D01*
X175139505Y-79309802D01*
X175084358Y-79143380D01*
X175084356Y-79143375D01*
X174992315Y-78994154D01*
X174868345Y-78870184D01*
X174719124Y-78778143D01*
X174719119Y-78778141D01*
X174552697Y-78722994D01*
X174552690Y-78722993D01*
X174449986Y-78712500D01*
X174000000Y-78712500D01*
X174000000Y-79625000D01*
X173500000Y-79625000D01*
X173500000Y-78712500D01*
X173050028Y-78712500D01*
X173050012Y-78712501D01*
X172947302Y-78722994D01*
X172780880Y-78778141D01*
X172780875Y-78778143D01*
X172631654Y-78870184D01*
X172507684Y-78994154D01*
X172415643Y-79143375D01*
X172415641Y-79143380D01*
X172360494Y-79309802D01*
X172360493Y-79309809D01*
X172350000Y-79412513D01*
X171550500Y-79412513D01*
X171550500Y-79234306D01*
X171547598Y-79197431D01*
X171542666Y-79180456D01*
X171501745Y-79039606D01*
X171501745Y-79039605D01*
X171501744Y-79039604D01*
X171501744Y-79039602D01*
X171500574Y-79037624D01*
X171500130Y-79035874D01*
X171498647Y-79032446D01*
X171499200Y-79032206D01*
X171483396Y-78969901D01*
X171498753Y-78917603D01*
X171498184Y-78917357D01*
X171500182Y-78912738D01*
X171500581Y-78911382D01*
X171501281Y-78910197D01*
X171547100Y-78752486D01*
X171547295Y-78750001D01*
X171547295Y-78750000D01*
X171281815Y-78750000D01*
X171218694Y-78732732D01*
X171202226Y-78722993D01*
X171160398Y-78698256D01*
X171160397Y-78698255D01*
X171160396Y-78698255D01*
X171160393Y-78698254D01*
X171002573Y-78652402D01*
X171002567Y-78652401D01*
X170965701Y-78649500D01*
X170965694Y-78649500D01*
X170511500Y-78649500D01*
X170502814Y-78646949D01*
X170493853Y-78648238D01*
X170469812Y-78637259D01*
X170444461Y-78629815D01*
X170438533Y-78622974D01*
X170430297Y-78619213D01*
X170416007Y-78596978D01*
X170398706Y-78577011D01*
X170396418Y-78566496D01*
X170392523Y-78560435D01*
X170387500Y-78525500D01*
X170387500Y-78474500D01*
X170407185Y-78407461D01*
X170459989Y-78361706D01*
X170511500Y-78350500D01*
X170965686Y-78350500D01*
X170965694Y-78350500D01*
X171002569Y-78347598D01*
X171002571Y-78347597D01*
X171002573Y-78347597D01*
X171088498Y-78322633D01*
X171160398Y-78301744D01*
X171218694Y-78267268D01*
X171281815Y-78250000D01*
X171547295Y-78250000D01*
X171547295Y-78249998D01*
X171547100Y-78247511D01*
X171547099Y-78247505D01*
X171501283Y-78089806D01*
X171501281Y-78089801D01*
X171500578Y-78088612D01*
X171500310Y-78087558D01*
X171498184Y-78082644D01*
X171498976Y-78082300D01*
X171483395Y-78020888D01*
X171499009Y-77967714D01*
X171498646Y-77967557D01*
X171499920Y-77964612D01*
X171500579Y-77962369D01*
X171501742Y-77960401D01*
X171501744Y-77960398D01*
X171547598Y-77802569D01*
X171550500Y-77765694D01*
X171550500Y-77334306D01*
X171547598Y-77297431D01*
X171541662Y-77277000D01*
X171501745Y-77139606D01*
X171501744Y-77139603D01*
X171501744Y-77139602D01*
X171418081Y-76998135D01*
X171418079Y-76998133D01*
X171418076Y-76998129D01*
X171301870Y-76881923D01*
X171301862Y-76881917D01*
X171187512Y-76814291D01*
X171160398Y-76798256D01*
X171160397Y-76798255D01*
X171160396Y-76798255D01*
X171160393Y-76798254D01*
X171002573Y-76752402D01*
X171002567Y-76752401D01*
X170965701Y-76749500D01*
X170965694Y-76749500D01*
X169809306Y-76749500D01*
X169809298Y-76749500D01*
X169772432Y-76752401D01*
X169772426Y-76752402D01*
X169614606Y-76798254D01*
X169614603Y-76798255D01*
X169473137Y-76881917D01*
X169473129Y-76881923D01*
X169356923Y-76998129D01*
X169356914Y-76998140D01*
X169356729Y-76998455D01*
X169356519Y-76998650D01*
X169352139Y-77004298D01*
X169351227Y-77003591D01*
X169305657Y-77046136D01*
X169236915Y-77058637D01*
X169172327Y-77031988D01*
X169148143Y-77004078D01*
X169147861Y-77004298D01*
X169143823Y-76999092D01*
X169143271Y-76998455D01*
X169143085Y-76998140D01*
X169143076Y-76998129D01*
X169026870Y-76881923D01*
X169026862Y-76881917D01*
X168912512Y-76814291D01*
X168885398Y-76798256D01*
X168885397Y-76798255D01*
X168885396Y-76798255D01*
X168885393Y-76798254D01*
X168727573Y-76752402D01*
X168727567Y-76752401D01*
X168690701Y-76749500D01*
X168690694Y-76749500D01*
X168424730Y-76749500D01*
X168357691Y-76729815D01*
X168337049Y-76713181D01*
X167466049Y-75842181D01*
X167432564Y-75780858D01*
X167437548Y-75711166D01*
X167479420Y-75655233D01*
X167544884Y-75630816D01*
X167553730Y-75630500D01*
X170593920Y-75630500D01*
X170727139Y-75604000D01*
X170738913Y-75601658D01*
X170875495Y-75545084D01*
X170950842Y-75494739D01*
X170998416Y-75462952D01*
X171549549Y-74911817D01*
X171610872Y-74878333D01*
X171637230Y-74875499D01*
X172162769Y-74875499D01*
X172229808Y-74895184D01*
X172250450Y-74911818D01*
X172800063Y-75461431D01*
X172833548Y-75522754D01*
X172828564Y-75592446D01*
X172786692Y-75648379D01*
X172777479Y-75654650D01*
X172631347Y-75744785D01*
X172631343Y-75744788D01*
X172507289Y-75868842D01*
X172415187Y-76018163D01*
X172415185Y-76018168D01*
X172397193Y-76072464D01*
X172360001Y-76184703D01*
X172360001Y-76184704D01*
X172360000Y-76184704D01*
X172349500Y-76287483D01*
X172349500Y-77212501D01*
X172349501Y-77212519D01*
X172360000Y-77315296D01*
X172360001Y-77315299D01*
X172399063Y-77433178D01*
X172415186Y-77481834D01*
X172507288Y-77631156D01*
X172631344Y-77755212D01*
X172780666Y-77847314D01*
X172947203Y-77902499D01*
X173049991Y-77913000D01*
X174450008Y-77912999D01*
X174552797Y-77902499D01*
X174719334Y-77847314D01*
X174868656Y-77755212D01*
X174992712Y-77631156D01*
X175084814Y-77481834D01*
X175139999Y-77315297D01*
X175150500Y-77212509D01*
X175150499Y-76287492D01*
X175150357Y-76286106D01*
X175139999Y-76184703D01*
X175139998Y-76184700D01*
X175084814Y-76018166D01*
X174992712Y-75868844D01*
X174868656Y-75744788D01*
X174775888Y-75687569D01*
X174719336Y-75652687D01*
X174719335Y-75652686D01*
X174719334Y-75652686D01*
X174585495Y-75608336D01*
X174528051Y-75568563D01*
X174501228Y-75504047D01*
X174500500Y-75490630D01*
X174500500Y-75276079D01*
X174471659Y-75131092D01*
X174471658Y-75131091D01*
X174471658Y-75131087D01*
X174453107Y-75086300D01*
X174415087Y-74994511D01*
X174415080Y-74994498D01*
X174332952Y-74871585D01*
X174282272Y-74820905D01*
X174228416Y-74767049D01*
X173648890Y-74187523D01*
X173061818Y-73600450D01*
X173047114Y-73573522D01*
X173030522Y-73547704D01*
X173029630Y-73541503D01*
X173028333Y-73539127D01*
X173025499Y-73512769D01*
X173025499Y-73345808D01*
X173045184Y-73278769D01*
X173061813Y-73258131D01*
X173223317Y-73096627D01*
X173284639Y-73063145D01*
X173310997Y-73060311D01*
X175295015Y-73060311D01*
X175362054Y-73079996D01*
X175407809Y-73132800D01*
X175417131Y-73162779D01*
X175624952Y-74341394D01*
X175624954Y-74341400D01*
X175624955Y-74341404D01*
X175629092Y-74355702D01*
X175641617Y-74398996D01*
X175641618Y-74398999D01*
X175714561Y-74523058D01*
X175714562Y-74523059D01*
X175714564Y-74523062D01*
X175819511Y-74621550D01*
X175819513Y-74621551D01*
X175819514Y-74621552D01*
X175926612Y-74675694D01*
X175947952Y-74686482D01*
X176089485Y-74712597D01*
X176089487Y-74712596D01*
X176089489Y-74712597D01*
X176149297Y-74708559D01*
X176149297Y-74708558D01*
X176149303Y-74708558D01*
X178046695Y-74373995D01*
X178116132Y-74381739D01*
X178170361Y-74425795D01*
X178192163Y-74492177D01*
X178192206Y-74493944D01*
X178192402Y-74505207D01*
X178192403Y-74505209D01*
X178225214Y-74691292D01*
X178225215Y-74691296D01*
X178225216Y-74691300D01*
X178231159Y-74708559D01*
X178286735Y-74869964D01*
X178286741Y-74869977D01*
X178352951Y-74994498D01*
X178375450Y-75036812D01*
X178485242Y-75182512D01*
X178489168Y-75187721D01*
X178489170Y-75187724D01*
X178625098Y-75318989D01*
X178625099Y-75318989D01*
X178668474Y-75349360D01*
X178779885Y-75427371D01*
X178779888Y-75427372D01*
X178779889Y-75427373D01*
X178949728Y-75510209D01*
X179130433Y-75565456D01*
X179317557Y-75591755D01*
X179506492Y-75588456D01*
X180086507Y-75486183D01*
X180265175Y-75424662D01*
X180432019Y-75335949D01*
X180582931Y-75222229D01*
X180714196Y-75086300D01*
X180822580Y-74931510D01*
X180905416Y-74761671D01*
X180960663Y-74580966D01*
X180986962Y-74393842D01*
X180983663Y-74204907D01*
X180950850Y-74018816D01*
X180889329Y-73840148D01*
X180883819Y-73829786D01*
X180822889Y-73715194D01*
X180800616Y-73673304D01*
X180686896Y-73522392D01*
X180676931Y-73512769D01*
X180550967Y-73391126D01*
X180550964Y-73391125D01*
X180396180Y-73282744D01*
X180297535Y-73234632D01*
X180226338Y-73199907D01*
X180045633Y-73144660D01*
X179858509Y-73118361D01*
X179858502Y-73118361D01*
X179858501Y-73118361D01*
X179669575Y-73121659D01*
X179669573Y-73121660D01*
X179089564Y-73223932D01*
X179089557Y-73223933D01*
X178910894Y-73285452D01*
X178910881Y-73285458D01*
X178766005Y-73362491D01*
X178697571Y-73376584D01*
X178632382Y-73351442D01*
X178591134Y-73295047D01*
X178585674Y-73274538D01*
X178575696Y-73217948D01*
X178505476Y-72819714D01*
X178513220Y-72750276D01*
X178557276Y-72696047D01*
X178606057Y-72676068D01*
X180135739Y-72406344D01*
X180204759Y-72394174D01*
X180204759Y-72394173D01*
X180204770Y-72394172D01*
X180262363Y-72377510D01*
X180386428Y-72304563D01*
X180484916Y-72199616D01*
X180549849Y-72071175D01*
X180575963Y-71929642D01*
X180575821Y-71927533D01*
X180571925Y-71869829D01*
X180571924Y-71869824D01*
X180316533Y-70421432D01*
X180316532Y-70421429D01*
X180316531Y-70421423D01*
X180299869Y-70363831D01*
X180290310Y-70347573D01*
X180245944Y-70272116D01*
X180228934Y-70204349D01*
X180230892Y-70186778D01*
X180250199Y-70082142D01*
X180249213Y-70067538D01*
X180246161Y-70022329D01*
X180246160Y-70022324D01*
X179990769Y-68573932D01*
X179990768Y-68573929D01*
X179990767Y-68573923D01*
X179974105Y-68516331D01*
X179974103Y-68516327D01*
X179901158Y-68392264D01*
X179796213Y-68293779D01*
X179796209Y-68293777D01*
X179667769Y-68228845D01*
X179649369Y-68225450D01*
X179526236Y-68202730D01*
X179526233Y-68202730D01*
X179466417Y-68206770D01*
X179466407Y-68206771D01*
X177867707Y-68488665D01*
X177798268Y-68480921D01*
X177744039Y-68436864D01*
X177724059Y-68388081D01*
X177723155Y-68382955D01*
X177643862Y-67933260D01*
X177651606Y-67863821D01*
X177695663Y-67809592D01*
X177762044Y-67787790D01*
X177783227Y-67788934D01*
X177945736Y-67811774D01*
X178134671Y-67808475D01*
X178714686Y-67706202D01*
X178893354Y-67644681D01*
X179060198Y-67555968D01*
X179211110Y-67442248D01*
X179342375Y-67306319D01*
X179450759Y-67151529D01*
X179533595Y-66981690D01*
X179588842Y-66800985D01*
X179615141Y-66613861D01*
X179611842Y-66424926D01*
X179579029Y-66238835D01*
X179517508Y-66060167D01*
X179428795Y-65893323D01*
X179315075Y-65742411D01*
X179264266Y-65693345D01*
X179179146Y-65611145D01*
X179179143Y-65611144D01*
X179024359Y-65502763D01*
X178905350Y-65444719D01*
X178854517Y-65419926D01*
X178673812Y-65364679D01*
X178486688Y-65338380D01*
X178486681Y-65338380D01*
X178486680Y-65338380D01*
X178297754Y-65341678D01*
X178297752Y-65341679D01*
X177717743Y-65443951D01*
X177717736Y-65443952D01*
X177539073Y-65505471D01*
X177539060Y-65505477D01*
X177372225Y-65594186D01*
X177221316Y-65707904D01*
X177221313Y-65707906D01*
X177090048Y-65843834D01*
X177090047Y-65843837D01*
X176981666Y-65998621D01*
X176898829Y-66168464D01*
X176843583Y-66349166D01*
X176843581Y-66349176D01*
X176817284Y-66536286D01*
X176817283Y-66536300D01*
X176820581Y-66725226D01*
X176820582Y-66725228D01*
X176853393Y-66911311D01*
X176853398Y-66911328D01*
X176857060Y-66921963D01*
X176860274Y-66991758D01*
X176825243Y-67052212D01*
X176763090Y-67084129D01*
X176761348Y-67084449D01*
X174863970Y-67419008D01*
X174863958Y-67419011D01*
X174806366Y-67435673D01*
X174682304Y-67508618D01*
X174682302Y-67508619D01*
X174682302Y-67508620D01*
X174583814Y-67613567D01*
X174583813Y-67613569D01*
X174518882Y-67742005D01*
X174518881Y-67742008D01*
X174518881Y-67742009D01*
X174506009Y-67811774D01*
X174492766Y-67883544D01*
X174496806Y-67943360D01*
X174496807Y-67943370D01*
X174769561Y-69490230D01*
X174769564Y-69490242D01*
X174776868Y-69515492D01*
X174776870Y-69515496D01*
X174786226Y-69547833D01*
X174859173Y-69671899D01*
X174879439Y-69690917D01*
X174879441Y-69690921D01*
X174958101Y-69764738D01*
X174993515Y-69824967D01*
X174990746Y-69894782D01*
X174983909Y-69911103D01*
X174926846Y-70023976D01*
X174885964Y-70067538D01*
X174874700Y-70083625D01*
X174883007Y-70130734D01*
X174893228Y-70166064D01*
X174897830Y-70192165D01*
X174900624Y-70233530D01*
X174900625Y-70233538D01*
X174995391Y-70770975D01*
X174995392Y-70770979D01*
X175006258Y-70808541D01*
X175010860Y-70834642D01*
X175013495Y-70873656D01*
X175013496Y-70873663D01*
X175108262Y-71411100D01*
X175108262Y-71411103D01*
X175119130Y-71448668D01*
X175122753Y-71465489D01*
X175123419Y-71470124D01*
X175126367Y-71513780D01*
X175144339Y-71615703D01*
X175144622Y-71617673D01*
X175139918Y-71650368D01*
X175136255Y-71683218D01*
X175134964Y-71684806D01*
X175134673Y-71686831D01*
X175113029Y-71711805D01*
X175092198Y-71737447D01*
X175090255Y-71738084D01*
X175088915Y-71739632D01*
X175057203Y-71748940D01*
X175025817Y-71759249D01*
X175021883Y-71759311D01*
X172987710Y-71759311D01*
X172920671Y-71739626D01*
X172874916Y-71686822D01*
X172864972Y-71617664D01*
X172882171Y-71570215D01*
X172933384Y-71487184D01*
X172959814Y-71444334D01*
X173014999Y-71277797D01*
X173025500Y-71175009D01*
X173025499Y-69824992D01*
X173025497Y-69824981D01*
X173025497Y-69824967D01*
X173014999Y-69722203D01*
X173014998Y-69722200D01*
X173004633Y-69690921D01*
X172959814Y-69555666D01*
X172867712Y-69406344D01*
X172743656Y-69282288D01*
X172743653Y-69282285D01*
X172709401Y-69261158D01*
X172662678Y-69209210D01*
X172650500Y-69155621D01*
X172650500Y-67137435D01*
X172621659Y-66992448D01*
X172621658Y-66992447D01*
X172621658Y-66992443D01*
X172596236Y-66931069D01*
X172565087Y-66855867D01*
X172565080Y-66855854D01*
X172482952Y-66732941D01*
X172432900Y-66682889D01*
X172378416Y-66628405D01*
X170590462Y-64840450D01*
X170556977Y-64779127D01*
X170554143Y-64752769D01*
X170554143Y-62806971D01*
X170554143Y-62806964D01*
X170543530Y-62687582D01*
X170487553Y-62491951D01*
X170393342Y-62311593D01*
X170325382Y-62228247D01*
X170264753Y-62153890D01*
X170149577Y-62059977D01*
X170107051Y-62025302D01*
X169926693Y-61931091D01*
X169926692Y-61931090D01*
X169926689Y-61931089D01*
X169809473Y-61897550D01*
X169731062Y-61875114D01*
X169731059Y-61875113D01*
X169731057Y-61875113D01*
X169664746Y-61869217D01*
X169611681Y-61864500D01*
X169611676Y-61864500D01*
X168495615Y-61864500D01*
X168495609Y-61864500D01*
X168495608Y-61864501D01*
X168483960Y-61865536D01*
X168376228Y-61875113D01*
X168180598Y-61931089D01*
X168115046Y-61965331D01*
X168000237Y-62025302D01*
X168000235Y-62025303D01*
X168000234Y-62025304D01*
X167842534Y-62153890D01*
X167713948Y-62311590D01*
X167619733Y-62491954D01*
X167563758Y-62687583D01*
X167563757Y-62687586D01*
X167553144Y-62806966D01*
X167553144Y-65923028D01*
X167553145Y-65923034D01*
X167563757Y-66042415D01*
X167619733Y-66238045D01*
X167619734Y-66238048D01*
X167619735Y-66238049D01*
X167713946Y-66418407D01*
X167744174Y-66455479D01*
X167771284Y-66519874D01*
X167759275Y-66588704D01*
X167735754Y-66621521D01*
X167344095Y-67013181D01*
X167282772Y-67046666D01*
X167256414Y-67049500D01*
X166643608Y-67049500D01*
X166576569Y-67029815D01*
X166530814Y-66977011D01*
X166520870Y-66907853D01*
X166549895Y-66844297D01*
X166565247Y-66829398D01*
X166710753Y-66710753D01*
X166839278Y-66553129D01*
X166933442Y-66372861D01*
X166989390Y-66177328D01*
X166989391Y-66177325D01*
X166999999Y-66058000D01*
X167000000Y-66057998D01*
X167000000Y-64750000D01*
X164000000Y-64750000D01*
X164000000Y-66058000D01*
X164010608Y-66177325D01*
X164010609Y-66177328D01*
X164066557Y-66372861D01*
X164160721Y-66553129D01*
X164289246Y-66710753D01*
X164434753Y-66829398D01*
X164474270Y-66887019D01*
X164476362Y-66956857D01*
X164440364Y-67016740D01*
X164377705Y-67047655D01*
X164356392Y-67049500D01*
X157746080Y-67049500D01*
X157601092Y-67078340D01*
X157601082Y-67078343D01*
X157464511Y-67134912D01*
X157464498Y-67134919D01*
X157363915Y-67202128D01*
X157363914Y-67202129D01*
X157341581Y-67217050D01*
X157341580Y-67217051D01*
X155300451Y-69258181D01*
X155239128Y-69291666D01*
X155212770Y-69294500D01*
X154634298Y-69294500D01*
X154597432Y-69297401D01*
X154597426Y-69297402D01*
X154439606Y-69343254D01*
X154439603Y-69343255D01*
X154298137Y-69426917D01*
X154298129Y-69426923D01*
X154181923Y-69543129D01*
X154181917Y-69543137D01*
X154098255Y-69684603D01*
X154098254Y-69684606D01*
X154052402Y-69842426D01*
X154052401Y-69842432D01*
X154049500Y-69879298D01*
X154049500Y-70310701D01*
X154052401Y-70347567D01*
X154052402Y-70347573D01*
X154098254Y-70505393D01*
X154098255Y-70505396D01*
X154098256Y-70505398D01*
X154119909Y-70542011D01*
X154181917Y-70646862D01*
X154186702Y-70653031D01*
X154184369Y-70654840D01*
X154211210Y-70703995D01*
X154206226Y-70773687D01*
X154185470Y-70806021D01*
X154187097Y-70807283D01*
X154182313Y-70813449D01*
X154098718Y-70954801D01*
X154052899Y-71112513D01*
X154052704Y-71114998D01*
X154052705Y-71115000D01*
X155401000Y-71115000D01*
X155468039Y-71134685D01*
X155513794Y-71187489D01*
X155525000Y-71239000D01*
X155525000Y-71491000D01*
X155505315Y-71558039D01*
X155452511Y-71603794D01*
X155401000Y-71615000D01*
X154052705Y-71615000D01*
X154052704Y-71615001D01*
X154052899Y-71617488D01*
X154071331Y-71680931D01*
X154071131Y-71750800D01*
X154033188Y-71809470D01*
X153969549Y-71838313D01*
X153900420Y-71828171D01*
X153864573Y-71803206D01*
X153579954Y-71518587D01*
X153286819Y-71225451D01*
X153253334Y-71164128D01*
X153250500Y-71137770D01*
X153250500Y-68862230D01*
X153270185Y-68795191D01*
X153286819Y-68774549D01*
X156674549Y-65386819D01*
X156735872Y-65353334D01*
X156762230Y-65350500D01*
X157461415Y-65350500D01*
X157528454Y-65370185D01*
X157574209Y-65422989D01*
X157579118Y-65435489D01*
X157601411Y-65502763D01*
X157615185Y-65544331D01*
X157615187Y-65544336D01*
X157628614Y-65566104D01*
X157707288Y-65693656D01*
X157831344Y-65817712D01*
X157980666Y-65909814D01*
X158147203Y-65964999D01*
X158249991Y-65975500D01*
X159150008Y-65975499D01*
X159150016Y-65975498D01*
X159150019Y-65975498D01*
X159206302Y-65969748D01*
X159252797Y-65964999D01*
X159419334Y-65909814D01*
X159568656Y-65817712D01*
X159692712Y-65693656D01*
X159784814Y-65544334D01*
X159839999Y-65377797D01*
X159850500Y-65275009D01*
X159850500Y-65274986D01*
X160650001Y-65274986D01*
X160660494Y-65377697D01*
X160715641Y-65544119D01*
X160715643Y-65544124D01*
X160807684Y-65693345D01*
X160931654Y-65817315D01*
X161080875Y-65909356D01*
X161080880Y-65909358D01*
X161247302Y-65964505D01*
X161247309Y-65964506D01*
X161350019Y-65974999D01*
X161549999Y-65974999D01*
X162050000Y-65974999D01*
X162249972Y-65974999D01*
X162249986Y-65974998D01*
X162352697Y-65964505D01*
X162519119Y-65909358D01*
X162519124Y-65909356D01*
X162668345Y-65817315D01*
X162792315Y-65693345D01*
X162884356Y-65544124D01*
X162884358Y-65544119D01*
X162939505Y-65377697D01*
X162939506Y-65377690D01*
X162949999Y-65274986D01*
X162950000Y-65274973D01*
X162950000Y-64850000D01*
X162050000Y-64850000D01*
X162050000Y-65974999D01*
X161549999Y-65974999D01*
X161550000Y-65974998D01*
X161550000Y-64850000D01*
X160650001Y-64850000D01*
X160650001Y-65274986D01*
X159850500Y-65274986D01*
X159850499Y-64599055D01*
X159850499Y-63925013D01*
X160650000Y-63925013D01*
X160650000Y-64350000D01*
X161550000Y-64350000D01*
X162050000Y-64350000D01*
X162949999Y-64350000D01*
X162949999Y-63925028D01*
X162949998Y-63925013D01*
X162939505Y-63822302D01*
X162884358Y-63655880D01*
X162884356Y-63655875D01*
X162792315Y-63506654D01*
X162668345Y-63382684D01*
X162519124Y-63290643D01*
X162519119Y-63290641D01*
X162352697Y-63235494D01*
X162352690Y-63235493D01*
X162249986Y-63225000D01*
X162050000Y-63225000D01*
X162050000Y-64350000D01*
X161550000Y-64350000D01*
X161550000Y-63225000D01*
X161350029Y-63225000D01*
X161350012Y-63225001D01*
X161247302Y-63235494D01*
X161080880Y-63290641D01*
X161080875Y-63290643D01*
X160931654Y-63382684D01*
X160807684Y-63506654D01*
X160715643Y-63655875D01*
X160715641Y-63655880D01*
X160660494Y-63822302D01*
X160660493Y-63822309D01*
X160650000Y-63925013D01*
X159850499Y-63925013D01*
X159850499Y-63924998D01*
X159850498Y-63924981D01*
X159839999Y-63822203D01*
X159839998Y-63822200D01*
X159820879Y-63764504D01*
X159784814Y-63655666D01*
X159692712Y-63506344D01*
X159568656Y-63382288D01*
X159419334Y-63290186D01*
X159252797Y-63235001D01*
X159252795Y-63235000D01*
X159150010Y-63224500D01*
X158249998Y-63224500D01*
X158249980Y-63224501D01*
X158147203Y-63235000D01*
X158147200Y-63235001D01*
X157980668Y-63290185D01*
X157980663Y-63290187D01*
X157831342Y-63382289D01*
X157707289Y-63506342D01*
X157615187Y-63655663D01*
X157615185Y-63655668D01*
X157615115Y-63655880D01*
X157582427Y-63754528D01*
X157579121Y-63764504D01*
X157539348Y-63821949D01*
X157474833Y-63848772D01*
X157461415Y-63849500D01*
X156326080Y-63849500D01*
X156181092Y-63878340D01*
X156181082Y-63878343D01*
X156044509Y-63934913D01*
X156018620Y-63952212D01*
X155921579Y-64017051D01*
X155921578Y-64017052D01*
X151917049Y-68021582D01*
X151917047Y-68021585D01*
X151901585Y-68044724D01*
X151901586Y-68044725D01*
X151834914Y-68144508D01*
X151778343Y-68281082D01*
X151778340Y-68281092D01*
X151749500Y-68426079D01*
X151749500Y-68426082D01*
X151749500Y-71573918D01*
X151749500Y-71573920D01*
X151749499Y-71573920D01*
X139135288Y-71573920D01*
X135786818Y-68225450D01*
X135753333Y-68164127D01*
X135750499Y-68137769D01*
X135750499Y-67202128D01*
X135750498Y-67202123D01*
X135750497Y-67202116D01*
X135744091Y-67142517D01*
X135720155Y-67078342D01*
X135693797Y-67007671D01*
X135693793Y-67007664D01*
X135607547Y-66892455D01*
X135607544Y-66892452D01*
X135492335Y-66806206D01*
X135492328Y-66806202D01*
X135357482Y-66755908D01*
X135357483Y-66755908D01*
X135297883Y-66749501D01*
X135297881Y-66749500D01*
X135297873Y-66749500D01*
X135297864Y-66749500D01*
X133502129Y-66749500D01*
X133502123Y-66749501D01*
X133442516Y-66755908D01*
X133307671Y-66806202D01*
X133307664Y-66806206D01*
X133192455Y-66892452D01*
X133187324Y-66897584D01*
X133126001Y-66931069D01*
X133056309Y-66926085D01*
X133011962Y-66897584D01*
X133007187Y-66892809D01*
X132892093Y-66806649D01*
X132892086Y-66806645D01*
X132757379Y-66756403D01*
X132757372Y-66756401D01*
X132697844Y-66750000D01*
X132050000Y-66750000D01*
X132050000Y-67666988D01*
X131992993Y-67634075D01*
X131865826Y-67600000D01*
X131734174Y-67600000D01*
X131607007Y-67634075D01*
X131550000Y-67666988D01*
X131550000Y-66750000D01*
X130902155Y-66750000D01*
X130842627Y-66756401D01*
X130842620Y-66756403D01*
X130707913Y-66806645D01*
X130707906Y-66806649D01*
X130592812Y-66892809D01*
X130588038Y-66897584D01*
X130526715Y-66931069D01*
X130457023Y-66926085D01*
X130412676Y-66897584D01*
X130407544Y-66892452D01*
X130292335Y-66806206D01*
X130292328Y-66806202D01*
X130157482Y-66755908D01*
X130157483Y-66755908D01*
X130097883Y-66749501D01*
X130097881Y-66749500D01*
X130097873Y-66749500D01*
X130097864Y-66749500D01*
X128302129Y-66749500D01*
X128302123Y-66749501D01*
X128242516Y-66755908D01*
X128107671Y-66806202D01*
X128107664Y-66806206D01*
X127992455Y-66892452D01*
X127992452Y-66892455D01*
X127906206Y-67007664D01*
X127906202Y-67007671D01*
X127855908Y-67142517D01*
X127849501Y-67202116D01*
X127849500Y-67202128D01*
X127849500Y-68997870D01*
X127849501Y-68997876D01*
X127855908Y-69057483D01*
X127906202Y-69192328D01*
X127906206Y-69192335D01*
X127992452Y-69307544D01*
X127992455Y-69307547D01*
X128107664Y-69393793D01*
X128107671Y-69393797D01*
X128242517Y-69444091D01*
X128242516Y-69444091D01*
X128249444Y-69444835D01*
X128302127Y-69450500D01*
X129337769Y-69450499D01*
X129404808Y-69470183D01*
X129425450Y-69486818D01*
X131214451Y-71275819D01*
X131247936Y-71337142D01*
X131242952Y-71406834D01*
X131201080Y-71462767D01*
X131135616Y-71487184D01*
X131126770Y-71487500D01*
X131000639Y-71487500D01*
X130935214Y-71497862D01*
X130804362Y-71518587D01*
X130615370Y-71579993D01*
X130615367Y-71579994D01*
X130438305Y-71670213D01*
X130277533Y-71787021D01*
X130137021Y-71927533D01*
X130020213Y-72088305D01*
X129929994Y-72265367D01*
X129929993Y-72265370D01*
X129868587Y-72454362D01*
X129837500Y-72650639D01*
X129837500Y-72849360D01*
X129868587Y-73045637D01*
X129929993Y-73234629D01*
X129929994Y-73234632D01*
X130016896Y-73405185D01*
X130020213Y-73411694D01*
X130137019Y-73572464D01*
X130277536Y-73712981D01*
X130438306Y-73829787D01*
X130480765Y-73851421D01*
X130555528Y-73889515D01*
X130606324Y-73937490D01*
X130623119Y-74005311D01*
X130600581Y-74071446D01*
X130555528Y-74110485D01*
X130438305Y-74170213D01*
X130277533Y-74287021D01*
X130137021Y-74427533D01*
X130020213Y-74588305D01*
X129929994Y-74765367D01*
X129929993Y-74765370D01*
X129868587Y-74954362D01*
X129848871Y-75078844D01*
X129837500Y-75150639D01*
X129837500Y-75349361D01*
X129842222Y-75379172D01*
X129868587Y-75545637D01*
X129929993Y-75734629D01*
X129929994Y-75734632D01*
X130020213Y-75911694D01*
X130137019Y-76072464D01*
X130277536Y-76212981D01*
X130438306Y-76329787D01*
X130507415Y-76365000D01*
X130555528Y-76389515D01*
X130606324Y-76437490D01*
X130623119Y-76505311D01*
X130600581Y-76571446D01*
X130555528Y-76610485D01*
X130438305Y-76670213D01*
X130277533Y-76787021D01*
X130137021Y-76927533D01*
X130020213Y-77088305D01*
X129929994Y-77265367D01*
X129929993Y-77265370D01*
X129868587Y-77454362D01*
X129840586Y-77631156D01*
X129837500Y-77650639D01*
X129837500Y-77849361D01*
X129853043Y-77947498D01*
X129868587Y-78045637D01*
X129929993Y-78234629D01*
X129929994Y-78234632D01*
X130008520Y-78388745D01*
X130020213Y-78411694D01*
X130137019Y-78572464D01*
X130277536Y-78712981D01*
X130438306Y-78829787D01*
X130615368Y-78920005D01*
X130653305Y-78932331D01*
X130710979Y-78971767D01*
X130738178Y-79036125D01*
X130726265Y-79104971D01*
X130679022Y-79156448D01*
X130653308Y-79168192D01*
X130615563Y-79180456D01*
X130438567Y-79270641D01*
X130277860Y-79387403D01*
X130277859Y-79387403D01*
X130137403Y-79527859D01*
X130137403Y-79527860D01*
X130020641Y-79688567D01*
X129930456Y-79865564D01*
X129869074Y-80054482D01*
X129861865Y-80099999D01*
X129861865Y-80100000D01*
X130716351Y-80100000D01*
X130673910Y-80173508D01*
X130642750Y-80289802D01*
X130642750Y-80410198D01*
X130673910Y-80526492D01*
X130716351Y-80600000D01*
X129861865Y-80600000D01*
X129869074Y-80645517D01*
X129930456Y-80834435D01*
X130020641Y-81011432D01*
X130137403Y-81172139D01*
X130137403Y-81172140D01*
X130277859Y-81312596D01*
X130438567Y-81429358D01*
X130615562Y-81519542D01*
X130804473Y-81580922D01*
X130850000Y-81588133D01*
X130850000Y-80733649D01*
X130923508Y-80776090D01*
X131039802Y-80807250D01*
X131160198Y-80807250D01*
X131276492Y-80776090D01*
X131350000Y-80733649D01*
X131350000Y-81588132D01*
X131395526Y-81580922D01*
X131584437Y-81519542D01*
X131761432Y-81429358D01*
X131922139Y-81312596D01*
X131922140Y-81312596D01*
X132062596Y-81172140D01*
X132062596Y-81172139D01*
X132179358Y-81011432D01*
X132269543Y-80834435D01*
X132330925Y-80645517D01*
X132338134Y-80600000D01*
X131483649Y-80600000D01*
X131526090Y-80526492D01*
X131557250Y-80410198D01*
X131557250Y-80289802D01*
X131526090Y-80173508D01*
X131483649Y-80100000D01*
X132338135Y-80100000D01*
X132338134Y-80099999D01*
X132330925Y-80054482D01*
X132269543Y-79865564D01*
X132179358Y-79688567D01*
X132062596Y-79527860D01*
X132062596Y-79527859D01*
X131922140Y-79387403D01*
X131761432Y-79270641D01*
X131584434Y-79180456D01*
X131546692Y-79168192D01*
X131489017Y-79128754D01*
X131461820Y-79064395D01*
X131473736Y-78995548D01*
X131520981Y-78944073D01*
X131546691Y-78932332D01*
X131584632Y-78920005D01*
X131761694Y-78829787D01*
X131922464Y-78712981D01*
X132062981Y-78572464D01*
X132179787Y-78411694D01*
X132270005Y-78234632D01*
X132331413Y-78045636D01*
X132362500Y-77849361D01*
X132362500Y-77650639D01*
X132331413Y-77454364D01*
X132289966Y-77326801D01*
X132270006Y-77265370D01*
X132270005Y-77265367D01*
X132183557Y-77095705D01*
X132179787Y-77088306D01*
X132062981Y-76927536D01*
X131922464Y-76787019D01*
X131761694Y-76670213D01*
X131644470Y-76610484D01*
X131638024Y-76604396D01*
X131629623Y-76601561D01*
X131613017Y-76580777D01*
X131593675Y-76562510D01*
X131591543Y-76553902D01*
X131586009Y-76546976D01*
X131583275Y-76520513D01*
X131576880Y-76494689D01*
X131579740Y-76486295D01*
X131578829Y-76477476D01*
X131590835Y-76453736D01*
X131599417Y-76428555D01*
X131607190Y-76421398D01*
X131610363Y-76415127D01*
X131630123Y-76400288D01*
X131637937Y-76393096D01*
X131641151Y-76391206D01*
X131761694Y-76329787D01*
X131829585Y-76280461D01*
X131834763Y-76277418D01*
X131863044Y-76270324D01*
X131890510Y-76260524D01*
X131896533Y-76261924D01*
X131902533Y-76260420D01*
X131930161Y-76269743D01*
X131958565Y-76276348D01*
X131965623Y-76281710D01*
X131968735Y-76282761D01*
X131971407Y-76286106D01*
X131985273Y-76296641D01*
X134963181Y-79274549D01*
X134996666Y-79335872D01*
X134999500Y-79362230D01*
X134999500Y-83647330D01*
X134999500Y-83647332D01*
X134999499Y-83647332D01*
X135028340Y-83792319D01*
X135028343Y-83792329D01*
X135084914Y-83928903D01*
X135084916Y-83928907D01*
X135102829Y-83955716D01*
X135102828Y-83955716D01*
X135167046Y-84051826D01*
X135167052Y-84051833D01*
X135397957Y-84282737D01*
X135431442Y-84344060D01*
X135426458Y-84413751D01*
X135405266Y-84450123D01*
X135306468Y-84567867D01*
X135306457Y-84567882D01*
X135266009Y-84626063D01*
X135200382Y-84783007D01*
X135200382Y-84783008D01*
X135179494Y-84917224D01*
X135149734Y-84980439D01*
X135097025Y-85015507D01*
X134968474Y-85059385D01*
X134968469Y-85059387D01*
X134825311Y-85151267D01*
X134825301Y-85151275D01*
X134775042Y-85201199D01*
X134775024Y-85201218D01*
X133673788Y-86513618D01*
X133673776Y-86513635D01*
X133633328Y-86571816D01*
X133567701Y-86728760D01*
X133567701Y-86728761D01*
X133546813Y-86862977D01*
X133543111Y-86870838D01*
X133543062Y-86879526D01*
X133528457Y-86901966D01*
X133517053Y-86926192D01*
X133508690Y-86932339D01*
X133504951Y-86938086D01*
X133486725Y-86948487D01*
X133475151Y-86956996D01*
X133469840Y-86959384D01*
X133335791Y-87005139D01*
X133260103Y-87053715D01*
X133251714Y-87057489D01*
X133225842Y-87061057D01*
X133200774Y-87068401D01*
X133191782Y-87065754D01*
X133182499Y-87067035D01*
X133158804Y-87056049D01*
X133133747Y-87048675D01*
X133121367Y-87038691D01*
X133119111Y-87037646D01*
X133118106Y-87036062D01*
X133113170Y-87032082D01*
X132786819Y-86705731D01*
X132753334Y-86644408D01*
X132750500Y-86618050D01*
X132750500Y-84804604D01*
X132759939Y-84757151D01*
X132769737Y-84733497D01*
X132800500Y-84578842D01*
X132800500Y-84421158D01*
X132800500Y-84421155D01*
X132800499Y-84421153D01*
X132771625Y-84275997D01*
X132769737Y-84266503D01*
X132729400Y-84169119D01*
X132709397Y-84120827D01*
X132709390Y-84120814D01*
X132621789Y-83989711D01*
X132621786Y-83989707D01*
X132510292Y-83878213D01*
X132510288Y-83878210D01*
X132379185Y-83790609D01*
X132379172Y-83790602D01*
X132233501Y-83730264D01*
X132233489Y-83730261D01*
X132078845Y-83699500D01*
X132078842Y-83699500D01*
X131921158Y-83699500D01*
X131921155Y-83699500D01*
X131766510Y-83730261D01*
X131766498Y-83730264D01*
X131620827Y-83790602D01*
X131620814Y-83790609D01*
X131489711Y-83878210D01*
X131489707Y-83878213D01*
X131378213Y-83989707D01*
X131378210Y-83989711D01*
X131290609Y-84120814D01*
X131290602Y-84120827D01*
X131230264Y-84266498D01*
X131230261Y-84266510D01*
X131199500Y-84421153D01*
X131199500Y-84578846D01*
X131230261Y-84733489D01*
X131230263Y-84733497D01*
X131234234Y-84743085D01*
X131240061Y-84757151D01*
X131249500Y-84804604D01*
X131249500Y-87054198D01*
X131249500Y-87054200D01*
X131249499Y-87054200D01*
X131278340Y-87199187D01*
X131278343Y-87199197D01*
X131334914Y-87335772D01*
X131334915Y-87335774D01*
X131334916Y-87335775D01*
X131358875Y-87371633D01*
X131367812Y-87385007D01*
X131367813Y-87385010D01*
X131417046Y-87458694D01*
X131417052Y-87458701D01*
X132132595Y-88174243D01*
X132166080Y-88235566D01*
X132161096Y-88305257D01*
X132139904Y-88341629D01*
X132041106Y-88459373D01*
X132041095Y-88459388D01*
X132000647Y-88517569D01*
X131935020Y-88674513D01*
X131935020Y-88674514D01*
X131914132Y-88808730D01*
X131884372Y-88871945D01*
X131831663Y-88907013D01*
X131703113Y-88950891D01*
X131703108Y-88950893D01*
X131559950Y-89042773D01*
X131559940Y-89042781D01*
X131509681Y-89092705D01*
X131509663Y-89092724D01*
X130408427Y-90405124D01*
X130408415Y-90405141D01*
X130367967Y-90463322D01*
X130302340Y-90620266D01*
X130302340Y-90620267D01*
X130281452Y-90754483D01*
X130251692Y-90817698D01*
X130198983Y-90852766D01*
X130070432Y-90896644D01*
X130070427Y-90896646D01*
X129927269Y-90988526D01*
X129927259Y-90988534D01*
X129877000Y-91038458D01*
X129876982Y-91038477D01*
X128775746Y-92350877D01*
X128775734Y-92350894D01*
X128735286Y-92409075D01*
X128669659Y-92566019D01*
X128669659Y-92566020D01*
X128648771Y-92700236D01*
X128619011Y-92763451D01*
X128566302Y-92798519D01*
X128437752Y-92842397D01*
X128437747Y-92842399D01*
X128294589Y-92934279D01*
X128294579Y-92934287D01*
X128244320Y-92984211D01*
X128244302Y-92984230D01*
X127143066Y-94296630D01*
X127143054Y-94296647D01*
X127102606Y-94354828D01*
X127036979Y-94511772D01*
X127036978Y-94511774D01*
X127010820Y-94679862D01*
X122674669Y-94679862D01*
X122101300Y-93971360D01*
X122100364Y-93970189D01*
X122072111Y-93934398D01*
X121673799Y-93429809D01*
X121672244Y-93427797D01*
X121649549Y-93397790D01*
X121057398Y-92614874D01*
X121056542Y-92613727D01*
X120659147Y-92074274D01*
X120657601Y-92072129D01*
X120395782Y-91700374D01*
X120089443Y-91265404D01*
X120088548Y-91264115D01*
X119723155Y-90730766D01*
X119721676Y-90728557D01*
X119203274Y-89935489D01*
X119202505Y-89934295D01*
X118870692Y-89411837D01*
X118869266Y-89409537D01*
X118824597Y-89335673D01*
X118401917Y-88636728D01*
X118401089Y-88635336D01*
X118103263Y-88127794D01*
X118101915Y-88125438D01*
X118087735Y-88100001D01*
X117685175Y-87377840D01*
X117684385Y-87376400D01*
X117681811Y-87371633D01*
X117419909Y-86886683D01*
X117418661Y-86884308D01*
X117050704Y-86165004D01*
X117050059Y-86163722D01*
X116817337Y-85693203D01*
X116816127Y-85690685D01*
X116811767Y-85681344D01*
X116494011Y-85000509D01*
X116493302Y-84998961D01*
X116447412Y-84897005D01*
X116290209Y-84547735D01*
X116289077Y-84545142D01*
X116270000Y-84500000D01*
X116008754Y-83881807D01*
X116008101Y-83880230D01*
X115991246Y-83838734D01*
X115831691Y-83445911D01*
X115830630Y-83443207D01*
X115761192Y-83259989D01*
X115587391Y-82801401D01*
X115586789Y-82799777D01*
X115583929Y-82791893D01*
X115433785Y-82378032D01*
X115432855Y-82375371D01*
X115221817Y-81747477D01*
X115221265Y-81745795D01*
X115185559Y-81634315D01*
X115088420Y-81331033D01*
X115087585Y-81328314D01*
X114904184Y-80705294D01*
X114903709Y-80703637D01*
X114895213Y-80673194D01*
X114788258Y-80289949D01*
X114787547Y-80287282D01*
X114628351Y-79660489D01*
X114627942Y-79658828D01*
X114527946Y-79240654D01*
X114527303Y-79237817D01*
X114512372Y-79168192D01*
X114390524Y-78600019D01*
X114390207Y-78598486D01*
X114305010Y-78171673D01*
X114304472Y-78168791D01*
X114190602Y-77515551D01*
X114190302Y-77513747D01*
X114120909Y-77076450D01*
X114120448Y-77073272D01*
X114032453Y-76403718D01*
X114032223Y-76401851D01*
X113981069Y-75954313D01*
X113980707Y-75950660D01*
X113973819Y-75868844D01*
X113923919Y-75276082D01*
X113923175Y-75267247D01*
X113923001Y-75264914D01*
X113922125Y-75251482D01*
X113893306Y-74809545D01*
X113893109Y-74805513D01*
X113870993Y-74112899D01*
X113870939Y-74110347D01*
X113870603Y-74079995D01*
X113865855Y-73650718D01*
X113865886Y-73646229D01*
X113867040Y-73600398D01*
X113883389Y-72951288D01*
X113883488Y-72948607D01*
X113905380Y-72489440D01*
X113905691Y-72484788D01*
X113965074Y-71795630D01*
X113965346Y-71792858D01*
X114015046Y-71339633D01*
X114015650Y-71334958D01*
X114116085Y-70660426D01*
X114116507Y-70657799D01*
X114192557Y-70216408D01*
X114193414Y-70211931D01*
X114330430Y-69561118D01*
X114330963Y-69558714D01*
X114429688Y-69135000D01*
X114430690Y-69131005D01*
X114597274Y-68512397D01*
X114597900Y-68510161D01*
X114714249Y-68109654D01*
X114715383Y-68105969D01*
X114903623Y-67526346D01*
X114904256Y-67524455D01*
X115033141Y-67150742D01*
X115034325Y-67147464D01*
X115237202Y-66610340D01*
X115237952Y-66608406D01*
X115260319Y-66552110D01*
X115375043Y-66263348D01*
X115376367Y-66260149D01*
X115385534Y-66238835D01*
X115589398Y-65764832D01*
X115590131Y-65763165D01*
X115733499Y-65444711D01*
X115734988Y-65441527D01*
X115869447Y-65164196D01*
X115957911Y-64981731D01*
X115958813Y-64979913D01*
X116109306Y-64682763D01*
X116110927Y-64679675D01*
X116347615Y-64244432D01*
X116348493Y-64242852D01*
X116509468Y-63958890D01*
X116511247Y-63955856D01*
X116767381Y-63533269D01*
X116768483Y-63531486D01*
X116784320Y-63506344D01*
X116943830Y-63253112D01*
X116945677Y-63250268D01*
X117152124Y-62941999D01*
X164000000Y-62941999D01*
X164000000Y-64250000D01*
X165250000Y-64250000D01*
X165750000Y-64250000D01*
X167000000Y-64250000D01*
X167000000Y-62942002D01*
X166999999Y-62941999D01*
X166989391Y-62822674D01*
X166989390Y-62822671D01*
X166933442Y-62627138D01*
X166839278Y-62446870D01*
X166710753Y-62289246D01*
X166553129Y-62160721D01*
X166372861Y-62066557D01*
X166177328Y-62010609D01*
X166177325Y-62010608D01*
X166058000Y-62000000D01*
X165750000Y-62000000D01*
X165750000Y-64250000D01*
X165250000Y-64250000D01*
X165250000Y-62000000D01*
X164941999Y-62000000D01*
X164822674Y-62010608D01*
X164822671Y-62010609D01*
X164627138Y-62066557D01*
X164446870Y-62160721D01*
X164289246Y-62289246D01*
X164160721Y-62446870D01*
X164066557Y-62627138D01*
X164010609Y-62822671D01*
X164010608Y-62822674D01*
X164000000Y-62941999D01*
X117152124Y-62941999D01*
X117227055Y-62830111D01*
X117228006Y-62828717D01*
X117421201Y-62550201D01*
X117423039Y-62547626D01*
X117732421Y-62126202D01*
X117733540Y-62124703D01*
X117945363Y-61845634D01*
X117947334Y-61843110D01*
X118283553Y-61424139D01*
X118284811Y-61422598D01*
X118305749Y-61397375D01*
X118513388Y-61147253D01*
X118515624Y-61144637D01*
X118874300Y-60737077D01*
X118875654Y-60735567D01*
X119117469Y-60470625D01*
X119120098Y-60467835D01*
X119494793Y-60082675D01*
X119496366Y-60081090D01*
X119746909Y-59833681D01*
X119749953Y-59830777D01*
X120134036Y-59477084D01*
X120135901Y-59475403D01*
X120390938Y-59250491D01*
X120394250Y-59247674D01*
X120782158Y-58929559D01*
X120784118Y-58927987D01*
X121040793Y-58726393D01*
X121044005Y-58723956D01*
X121432153Y-58439493D01*
X121433956Y-58438197D01*
X121690589Y-58257389D01*
X121693375Y-58255484D01*
X122080229Y-57998902D01*
X122081550Y-57998040D01*
X122337548Y-57833761D01*
X122339778Y-57832364D01*
X122725268Y-57596825D01*
X122726271Y-57596220D01*
X122981982Y-57444080D01*
X122983836Y-57442999D01*
X123369741Y-57222718D01*
X123370683Y-57222186D01*
X123627388Y-57079191D01*
X123629251Y-57078174D01*
X124019717Y-56869701D01*
X124020772Y-56869146D01*
X124281443Y-56733731D01*
X124283623Y-56732627D01*
X124684143Y-56534855D01*
X124685596Y-56534151D01*
X124949733Y-56408060D01*
X124954331Y-56405864D01*
X124956935Y-56404659D01*
X125374201Y-56217668D01*
X125375767Y-56216980D01*
X125657047Y-56096096D01*
X125660033Y-56094861D01*
X126099956Y-55919769D01*
X126101816Y-55919047D01*
X126399343Y-55806394D01*
X126402634Y-55805202D01*
X126869859Y-55643519D01*
X126871768Y-55642877D01*
X127114205Y-55563706D01*
X127188166Y-55539553D01*
X127191629Y-55538478D01*
X127688373Y-55392300D01*
X127690287Y-55391755D01*
X128026442Y-55299274D01*
X128029940Y-55298367D01*
X128555641Y-55170372D01*
X128557659Y-55169899D01*
X128912410Y-55090196D01*
X128916019Y-55089442D01*
X129467039Y-54982872D01*
X129469066Y-54982499D01*
X129839158Y-54917872D01*
X129842814Y-54917292D01*
X130412120Y-54835929D01*
X130414307Y-54835637D01*
X130793950Y-54788716D01*
X130797912Y-54788292D01*
X131375667Y-54735970D01*
X131378015Y-54735782D01*
X131760298Y-54708934D01*
X131764520Y-54708712D01*
X132339700Y-54688365D01*
X132342207Y-54688302D01*
X132720016Y-54683048D01*
X132724502Y-54683067D01*
G37*
%TD.AperFunction*%
%TD*%
M02*
