  0
SECTION
  2
HEADER
  9
$ACADVER
  1
AC1006
  9
$EXTMIN
 10
0.000000
 20
0.000000
 30
0.000000
  9
$EXTMAX
 10
7972.000000
 20
7969.000000
 30
0.000000
  0
ENDSEC
  0
SECTION
  2
ENTITIES
  0
POLYLINE
  8
0
 66
1
 70
1
  0
VERTEX
  8
0
 10
798.067680
 20
6158.208636
 42
0.044689
  0
VERTEX
  8
0
 10
798.562008
 20
6149.950866
 42
0.001448
  0
VERTEX
  8
0
 10
803.604204
 20
6117.035708
 42
0.003027
  0
VERTEX
  8
0
 10
809.439713
 20
6081.094048
 42
0.003231
  0
VERTEX
  8
0
 10
815.589379
 20
6046.000000
 42
0.010893
  0
VERTEX
  8
0
 10
842.917453
 20
5912.367054
 42
0.008916
  0
VERTEX
  8
0
 10
877.771379
 20
5770.760956
 42
0.008708
  0
VERTEX
  8
0
 10
918.675146
 20
5626.661430
 42
0.008970
  0
VERTEX
  8
0
 10
964.194696
 20
5485.500000
 42
0.024266
  0
VERTEX
  8
0
 10
1127.665983
 20
5074.310352
 42
0.025156
  0
VERTEX
  8
0
 10
1328.478223
 20
4685.955827
 42
0.025462
  0
VERTEX
  8
0
 10
1564.688836
 20
4324.189230
 42
0.026327
  0
VERTEX
  8
0
 10
1834.008148
 20
3992.500000
 42
0.007222
  0
VERTEX
  8
0
 10
1909.267808
 20
3911.564835
 42
0.006713
  0
VERTEX
  8
0
 10
1988.664899
 20
3830.814132
 42
0.006738
  0
VERTEX
  8
0
 10
2069.867012
 20
3752.554284
 42
0.007440
  0
VERTEX
  8
0
 10
2150.543168
 20
3679.097703
 42
0.018263
  0
VERTEX
  8
0
 10
2377.659062
 20
3492.720918
 42
0.018130
  0
VERTEX
  8
0
 10
2618.309801
 20
3322.939740
 42
0.018003
  0
VERTEX
  8
0
 10
2872.333032
 20
3169.925358
 42
0.017413
  0
VERTEX
  8
0
 10
3139.500000
 20
3033.765826
 42
0.027159
  0
VERTEX
  8
0
 10
3594.891960
 20
2850.711178
 42
0.024558
  0
VERTEX
  8
0
 10
4082.889227
 20
2711.022179
 42
0.023527
  0
VERTEX
  8
0
 10
4603.101556
 20
2614.938197
 42
0.020449
  0
VERTEX
  8
0
 10
5155.000000
 20
2562.513220
 42
0.000936
  0
VERTEX
  8
0
 10
5180.424270
 20
2561.191449
 42
0.000504
  0
VERTEX
  8
0
 10
5211.775525
 20
2559.652055
 42
0.000154
  0
VERTEX
  8
0
 10
5243.567787
 20
2558.132896
 42
0.011347
  0
VERTEX
  8
0
 10
5248.750000
 20
2558.004623
 42
0.000000
  0
VERTEX
  8
0
 10
5251.000000
 20
2558.000000
 42
0.000000
  0
VERTEX
  8
0
 10
5251.000000
 20
2182.500000
 42
0.000135
  0
VERTEX
  8
0
 10
5251.039008
 20
2038.514185
 42
0.000226
  0
VERTEX
  8
0
 10
5251.159462
 20
1917.303125
 42
0.000002
  0
VERTEX
  8
0
 10
5251.319055
 20
1807.223470
 42
0.413788
  0
VERTEX
  8
0
 10
5251.542851
 20
1807.000000
 42
0.170943
  0
VERTEX
  8
0
 10
5251.940230
 20
1807.139947
 42
0.000002
  0
VERTEX
  8
0
 10
5317.787089
 20
1860.086606
 42
0.000184
  0
VERTEX
  8
0
 10
5390.282628
 20
1918.423964
 42
0.000111
  0
VERTEX
  8
0
 10
5476.292851
 20
1987.720360
 42
-0.000008
  0
VERTEX
  8
0
 10
5605.852430
 20
2092.147447
 42
-0.000001
  0
VERTEX
  8
0
 10
5850.545400
 20
2289.366426
 42
-0.000001
  0
VERTEX
  8
0
 10
6137.662212
 20
2520.775702
 42
-0.000001
  0
VERTEX
  8
0
 10
6435.500000
 20
2760.823058
 42
0.000028
  0
VERTEX
  8
0
 10
6717.489751
 20
2988.121943
 42
0.000046
  0
VERTEX
  8
0
 10
6955.257257
 20
3179.833099
 42
0.000001
  0
VERTEX
  8
0
 10
7170.828383
 20
3353.680765
 42
0.022182
  0
VERTEX
  8
0
 10
7172.758746
 20
3355.384171
 42
0.000000
  0
VERTEX
  8
0
 10
7175.017492
 20
3357.562946
 42
0.000000
  0
VERTEX
  8
0
 10
6942.258746
 20
3545.173229
 42
-0.000003
  0
VERTEX
  8
0
 10
6809.147426
 20
3652.465915
 42
-0.000000
  0
VERTEX
  8
0
 10
6563.729132
 20
3850.284636
 42
-0.000001
  0
VERTEX
  8
0
 10
6276.666856
 20
4081.671286
 42
-0.000000
  0
VERTEX
  8
0
 10
5980.500000
 20
4320.397621
 42
0.000000
  0
VERTEX
  8
0
 10
5251.500000
 20
4908.011731
 42
0.000000
  0
VERTEX
  8
0
 10
5251.000000
 20
4534.279249
 42
0.000000
  0
VERTEX
  8
0
 10
5250.500000
 20
4160.546767
 42
0.000000
  0
VERTEX
  8
0
 10
5245.000000
 20
4159.298365
 42
-0.011764
  0
VERTEX
  8
0
 10
5241.270252
 20
4158.543574
 42
-0.000682
  0
VERTEX
  8
0
 10
5229.806250
 20
4156.519192
 42
-0.001036
  0
VERTEX
  8
0
 10
5216.147984
 20
4154.155680
 42
-0.000761
  0
VERTEX
  8
0
 10
5201.000000
 20
4151.590423
 42
-0.009509
  0
VERTEX
  8
0
 10
5051.558444
 20
4129.430001
 42
-0.007553
  0
VERTEX
  8
0
 10
4889.445857
 20
4111.017610
 42
-0.007290
  0
VERTEX
  8
0
 10
4720.261167
 20
4096.873366
 42
-0.007132
  0
VERTEX
  8
0
 10
4549.500000
 20
4087.546476
 42
-0.001801
  0
VERTEX
  8
0
 10
4488.638062
 20
4085.311915
 42
-0.004089
  0
VERTEX
  8
0
 10
4442.609959
 20
4084.164725
 42
-0.003329
  0
VERTEX
  8
0
 10
4391.233215
 20
4083.646717
 42
-0.000850
  0
VERTEX
  8
0
 10
4308.000000
 20
4083.503201
 42
-0.000868
  0
VERTEX
  8
0
 10
4224.633027
 20
4083.645848
 42
-0.003338
  0
VERTEX
  8
0
 10
4172.799021
 20
4084.170572
 42
-0.004177
  0
VERTEX
  8
0
 10
4126.943860
 20
4085.324213
 42
-0.001993
  0
VERTEX
  8
0
 10
4068.000000
 20
4087.535247
 42
-0.025115
  0
VERTEX
  8
0
 10
3515.430000
 20
4138.347751
 42
-0.029498
  0
VERTEX
  8
0
 10
3000.171059
 20
4243.277650
 42
-0.031153
  0
VERTEX
  8
0
 10
2526.907260
 20
4401.249267
 42
-0.035951
  0
VERTEX
  8
0
 10
2100.000000
 20
4610.806861
 42
-0.041385
  0
VERTEX
  8
0
 10
1686.266573
 20
4900.535447
 42
-0.043201
  0
VERTEX
  8
0
 10
1332.319638
 20
5250.669743
 42
-0.042734
  0
VERTEX
  8
0
 10
1040.607871
 20
5660.105384
 42
-0.038826
  0
VERTEX
  8
0
 10
811.984170
 20
6126.209747
 42
0.000288
  0
VERTEX
  8
0
 10
807.303793
 20
6137.962698
 42
0.000435
  0
VERTEX
  8
0
 10
803.213959
 20
6148.189738
 42
0.000162
  0
VERTEX
  8
0
 10
799.682677
 20
6156.989594
 42
0.010566
  0
VERTEX
  8
0
 10
799.038610
 20
6158.500000
 42
0.004167
  0
VERTEX
  8
0
 10
798.436029
 20
6159.805148
 42
0.371121
  0
VERTEX
  8
0
 10
798.254943
 20
6159.885841
 42
0.318990
  0
VERTEX
  8
0
 10
798.123235
 20
6159.716727
 42
0.003646
  0
SEQEND
  0
ENDSEC
  0
EOF
